<svg width="954" height="405" viewBox="0 0 954 405" fill="none" xmlns="http://www.w3.org/2000/svg">
<mask id="mask0_372_1015" style="mask-type:alpha" maskUnits="userSpaceOnUse" x="5" y="79" width="324" height="247">
<path d="M306.028 82.352C320.934 87.6916 328.387 94.8111 328.387 103.711C328.387 106.603 327.053 112.054 324.383 120.063L260.307 305.282C259.862 306.839 259.084 308.73 257.971 310.955C256.859 313.18 253.855 316.183 248.96 319.966C244.288 323.525 238.615 325.305 231.94 325.305C225.488 325.305 219.815 323.525 214.92 319.966C210.248 316.183 207.133 312.512 205.576 308.953L166.53 193.817C141.834 266.792 129.264 303.947 128.819 305.282C128.374 306.617 127.373 308.508 125.815 310.955C124.258 313.402 122.478 315.627 120.475 317.63C115.358 322.747 109.24 325.305 102.121 325.305C95.001 325.305 89.1051 323.637 84.433 320.299C79.9833 316.962 76.9797 313.625 75.4223 310.288L73.0862 305.282L8.67691 120.063C6.22957 112.721 5.00591 107.27 5.00591 103.711C5.00591 94.8111 12.4591 87.8028 27.3656 82.6857C33.8177 80.4608 39.6023 79.3484 44.7194 79.3484C50.0591 79.3484 54.0638 81.1283 56.7336 84.688C59.6259 88.2478 62.1845 93.6987 64.4093 101.041L101.119 212.506L137.496 102.709C140.61 93.365 146.284 86.9129 154.516 83.3532C158.075 81.7958 162.636 81.0171 168.198 81.0171C173.983 81.0171 179.323 82.9082 184.217 86.6904C189.112 90.2502 192.227 93.8099 193.562 97.3697L231.94 213.173L268.65 101.041C270.43 95.9235 271.876 92.1413 272.989 89.694C274.101 87.2466 276.104 84.9105 278.996 82.6857C282.111 80.2384 285.893 79.0147 290.343 79.0147C294.792 79.0147 300.021 80.1271 306.028 82.352Z" fill="black"/>
</mask>
<g mask="url(#mask0_372_1015)">
<rect width="66.7119" height="324.44" rx="33.356" transform="matrix(0.949225 0.314598 0.31484 -0.949145 185.63 352.969)" fill="#0F9D58" fill-opacity="0.95"/>
<rect width="56.0614" height="282.52" rx="28.0307" transform="matrix(-0.949627 0.313384 -0.313626 -0.949547 270.716 330.698)" fill="#F4B400" fill-opacity="0.95"/>
<rect width="55.5271" height="293.655" rx="27.7636" transform="matrix(0.949225 0.314598 0.31484 -0.949145 62.8884 328.36)" fill="#DB4437" fill-opacity="0.95"/>
<rect width="66.4021" height="324.44" rx="33.2011" transform="matrix(-0.949225 0.314598 -0.31484 -0.949145 151.1 363.359)" fill="#4285F4" fill-opacity="0.95"/>
</g>
<mask id="mask1_372_1015" style="mask-type:alpha" maskUnits="userSpaceOnUse" x="625" y="79" width="324" height="247">
<path d="M647.972 82.352C633.066 87.6916 625.613 94.8111 625.613 103.711C625.613 106.603 626.947 112.054 629.617 120.063L693.693 305.282C694.138 306.839 694.916 308.73 696.029 310.955C697.141 313.18 700.145 316.183 705.04 319.966C709.712 323.525 715.385 325.305 722.06 325.305C728.512 325.305 734.185 323.525 739.08 319.966C743.752 316.183 746.867 312.512 748.424 308.953L787.47 193.817C812.166 266.792 824.736 303.947 825.181 305.282C825.626 306.617 826.627 308.508 828.185 310.955C829.742 313.402 831.522 315.627 833.525 317.63C838.642 322.747 844.76 325.305 851.879 325.305C858.999 325.305 864.895 323.637 869.567 320.299C874.017 316.962 877.02 313.625 878.578 310.288L880.914 305.282L945.323 120.063C947.77 112.721 948.994 107.27 948.994 103.711C948.994 94.8111 941.541 87.8028 926.634 82.6857C920.182 80.4608 914.398 79.3484 909.281 79.3484C903.941 79.3484 899.936 81.1283 897.266 84.688C894.374 88.2478 891.816 93.6987 889.591 101.041L852.881 212.506L816.504 102.709C813.39 93.365 807.716 86.9129 799.484 83.3532C795.925 81.7958 791.364 81.0171 785.802 81.0171C780.017 81.0171 774.677 82.9082 769.783 86.6904C764.888 90.2502 761.773 93.8099 760.438 97.3697L722.06 213.173L685.35 101.041C683.57 95.9235 682.124 92.1413 681.011 89.694C679.899 87.2466 677.896 84.9105 675.004 82.6857C671.889 80.2384 668.107 79.0147 663.657 79.0147C659.208 79.0147 653.979 80.1271 647.972 82.352Z" fill="black"/>
</mask>
<g mask="url(#mask1_372_1015)">
<rect width="66.7119" height="324.44" rx="33.356" transform="matrix(-0.949225 0.314598 -0.31484 -0.949145 768.372 352.969)" fill="#0F9D58" fill-opacity="0.95"/>
<rect width="56.0614" height="282.52" rx="28.0307" transform="matrix(0.949627 0.313384 0.313626 -0.949547 683.286 330.698)" fill="#F4B400" fill-opacity="0.95"/>
<rect width="55.5271" height="293.655" rx="27.7636" transform="matrix(-0.949225 0.314598 -0.31484 -0.949145 891.113 328.36)" fill="#DB4437" fill-opacity="0.95"/>
<rect width="66.4021" height="324.44" rx="33.2011" transform="matrix(0.949225 0.314598 0.31484 -0.949145 802.9 363.359)" fill="#4285F4" fill-opacity="0.95"/>
</g>
<path fill-rule="evenodd" clip-rule="evenodd" d="M327.402 190.754C318.204 196.064 318.204 209.34 327.402 214.65L393.386 252.746C384.637 238.114 379.609 221.001 379.609 202.713C379.609 184.411 384.645 167.285 393.407 152.646L327.402 190.754ZM475.777 105.089C476.265 105.082 476.754 105.079 477.244 105.079C514.03 105.079 546.064 125.422 562.71 155.473V78.7946C562.71 68.1742 551.213 61.5364 542.015 66.8466L475.777 105.089ZM562.71 249.954C546.064 280.004 514.03 300.348 477.244 300.348C476.768 300.348 476.293 300.345 475.818 300.338L542.015 338.557C551.213 343.867 562.71 337.23 562.71 326.609V249.954Z" fill="#34A853" fill-opacity="0.9"/>
<path fill-rule="evenodd" clip-rule="evenodd" d="M574.863 204.515C574.874 203.916 574.879 203.315 574.879 202.713C574.879 166.015 554.632 134.046 524.7 117.367H601.282C611.902 117.367 618.54 128.864 613.23 138.062L574.863 204.515ZM527.599 286.378C512.897 295.246 495.666 300.348 477.244 300.348C458.989 300.348 441.903 295.338 427.288 286.617L465.427 352.675C470.737 361.873 484.012 361.873 489.323 352.675L527.599 286.378ZM379.618 204.051L341.519 138.062C336.209 128.864 342.847 117.367 353.467 117.367H429.789C399.856 134.046 379.609 166.015 379.609 202.713C379.609 203.16 379.612 203.606 379.618 204.051Z" fill="#FBBC04" fill-opacity="0.9"/>
<path fill-rule="evenodd" clip-rule="evenodd" d="M627.351 214.65C636.548 209.34 636.548 196.064 627.351 190.754L560.943 152.413C569.791 167.104 574.88 184.315 574.88 202.714C574.88 221.098 569.799 238.295 560.965 252.978L627.351 214.65ZM478.941 300.334C478.377 300.344 477.812 300.349 477.245 300.349C440.652 300.349 408.761 280.218 392.043 250.426V326.609C392.043 337.23 403.54 343.867 412.737 338.557L478.941 300.334ZM478.984 105.094L412.737 66.8467C403.54 61.5365 392.043 68.1742 392.043 78.7947V155.002C408.761 125.21 440.652 105.079 477.245 105.079C477.826 105.079 478.406 105.084 478.984 105.094Z" fill="#EA4335" fill-opacity="0.9"/>
<path fill-rule="evenodd" clip-rule="evenodd" d="M489.323 52.7278C484.013 43.5303 470.737 43.5303 465.427 52.7278L427.267 118.822C441.887 110.094 458.98 105.079 477.244 105.079C495.675 105.079 512.914 110.186 527.621 119.062L489.323 52.7278ZM574.862 200.887C574.874 201.494 574.879 202.103 574.879 202.714C574.879 239.394 554.652 271.35 524.743 288.036H601.282C611.903 288.036 618.54 276.539 613.23 267.341L574.862 200.887ZM429.746 288.036C399.837 271.35 379.61 239.394 379.61 202.714C379.61 202.259 379.613 201.805 379.619 201.352L341.52 267.341C336.209 276.539 342.847 288.036 353.468 288.036H429.746Z" fill="#4285F4" fill-opacity="0.9"/>
<path fill-rule="evenodd" clip-rule="evenodd" d="M533 136.997C496.807 106.292 442.604 110.684 411.823 146.775C417.999 139.684 428.746 138.857 435.938 144.958C443.188 151.109 444.079 161.972 437.929 169.222L437.931 169.224C456.336 147.53 488.805 144.814 510.555 163.109C510.611 163.157 510.667 163.205 510.723 163.252C517.973 169.403 528.837 168.512 534.988 161.262C541.138 154.012 540.248 143.149 532.999 136.998L533 136.997Z" fill="url(#paint0_linear_372_1015)"/>
<path fill-rule="evenodd" clip-rule="evenodd" d="M411.669 146.948L411.669 146.948C380.984 183.117 385.349 237.271 421.373 268.063L421.62 268.273L421.621 268.273C414.371 262.122 413.479 251.258 419.63 244.008C425.781 236.757 436.645 235.866 443.895 242.017L443.895 242.017C422.173 223.587 419.48 191.055 437.857 169.305C437.88 169.277 437.903 169.25 437.926 169.223C444.077 161.973 443.186 151.109 435.936 144.958C428.686 138.807 417.822 139.698 411.671 146.948C411.671 146.948 411.671 146.948 411.671 146.949L411.669 146.948Z" fill="url(#paint1_linear_372_1015)"/>
<path fill-rule="evenodd" clip-rule="evenodd" d="M421.626 268.273L421.626 268.274C457.792 298.956 511.94 294.594 542.733 258.578L542.951 258.322C536.8 265.572 525.936 266.463 518.686 260.312C511.436 254.161 510.545 243.297 516.696 236.047L516.695 236.047C498.268 257.768 465.74 260.464 443.989 242.093C443.96 242.068 443.931 242.043 443.902 242.018C436.651 235.867 425.787 236.758 419.636 244.009C413.486 251.259 414.376 262.122 421.626 268.273L421.626 268.273Z" fill="url(#paint2_linear_372_1015)"/>
<path fill-rule="evenodd" clip-rule="evenodd" d="M533.203 137.168L533.063 137.05C540.255 143.21 541.124 154.032 534.99 161.262C528.857 168.491 518.038 169.398 510.788 163.305C532.48 181.767 535.131 214.317 516.695 236.046L516.695 236.046C510.544 243.297 511.435 254.161 518.685 260.312C525.936 266.463 536.8 265.572 542.951 258.321L542.951 258.322L543.029 258.23C573.641 222.046 569.237 167.928 533.203 137.168Z" fill="url(#paint3_linear_372_1015)"/>
<defs>
<linearGradient id="paint0_linear_372_1015" x1="490.782" y1="137.528" x2="426.155" y2="155.959" gradientUnits="userSpaceOnUse">
<stop stop-color="#4285F4"/>
<stop offset="1" stop-color="#4285F4" stop-opacity="0.7"/>
</linearGradient>
<linearGradient id="paint1_linear_372_1015" x1="412.201" y1="189.165" x2="430.633" y2="253.792" gradientUnits="userSpaceOnUse">
<stop stop-color="#0F9D58"/>
<stop offset="1" stop-color="#0F9D58" stop-opacity="0.7"/>
</linearGradient>
<linearGradient id="paint2_linear_372_1015" x1="463.844" y1="267.742" x2="528.471" y2="249.311" gradientUnits="userSpaceOnUse">
<stop stop-color="#F4B400"/>
<stop offset="1" stop-color="#F4B400" stop-opacity="0.7"/>
</linearGradient>
<linearGradient id="paint3_linear_372_1015" x1="542.44" y1="216.121" x2="523.992" y2="151.544" gradientUnits="userSpaceOnUse">
<stop stop-color="#DB4437"/>
<stop offset="1" stop-color="#DB4437" stop-opacity="0.7"/>
</linearGradient>
</defs>
</svg>
