<svg width="3960" height="1289" viewBox="0 0 3960 1289" fill="none" xmlns="http://www.w3.org/2000/svg">
<path d="M2907.25 1051.35C2902.75 1039.19 2898.04 1027.12 2893.8 1014.87C2870.92 948.84 2848.2 882.75 2825.35 816.707C2793.57 724.875 2761.71 633.074 2729.92 541.248C2713.59 494.076 2697.31 446.885 2681.06 399.685C2668.61 363.502 2655.94 327.386 2643.95 291.049C2638.34 274.039 2632.98 256.914 2632.55 238.591C2632.1 220.011 2639.21 205.03 2651.63 191.935C2666.61 176.133 2685.16 165.774 2704.9 157.432C2727.31 147.957 2750.22 139.971 2774.59 136.989C2808.77 132.806 2835.99 144.426 2855.85 172.648C2858.29 176.121 2860.09 180.211 2861.44 184.264C2897.65 292.884 2933.79 401.528 2969.88 510.188C2988.45 566.095 3006.89 622.042 3025.41 677.965C3026.04 679.859 3026.86 681.687 3027.97 684.828C3027.78 688.71 3027.21 691.31 3026.16 694.433C2993.39 792.661 2961.14 890.377 2928.79 988.062C2921.79 1009.21 2914.44 1030.25 2907.25 1051.35Z" fill="#0F9D59"/>
<path d="M1017.7 684.804C1023.99 666.557 1030.44 648.366 1036.53 630.055C1054.49 576.043 1072.29 521.973 1090.21 467.944C1117.77 384.848 1145.38 301.769 1172.94 218.675C1176.4 208.251 1179.6 197.74 1183.1 187.332C1192.8 158.549 1222.45 137.045 1252.93 136.269C1268.06 135.884 1282.81 138.136 1297.27 142.186C1325.28 150.031 1352.33 160.273 1376.43 176.964C1382.69 181.297 1388.63 186.292 1393.98 191.706C1411.54 209.483 1417.75 231.06 1411.33 255.052C1404.29 281.372 1396.13 307.428 1387.5 333.283C1374.02 373.691 1359.74 413.832 1345.81 454.088C1318.59 532.716 1291.39 611.345 1264.17 689.973C1231.52 784.326 1198.87 878.68 1166.2 973.031C1157.28 998.813 1148.33 1024.59 1138.53 1050.46C1104.2 949.266 1070.75 847.955 1037.21 746.674C1031.37 729.043 1025.15 711.536 1019.12 693.285C1018.65 690 1018.18 687.402 1017.7 684.804Z" fill="#0F9D59"/>
<path d="M3564.39 683.152C3574.3 653.862 3584.33 624.613 3594.1 595.275C3617.83 523.966 3641.43 452.616 3665.08 381.281C3685.7 319.106 3706.03 256.837 3727.16 194.838C3730.96 183.679 3737.19 173.081 3743.74 163.18C3755.47 145.456 3772.97 137.873 3794 137.639C3821.37 137.335 3847.49 143.681 3872.71 153.399C3888.15 159.35 3902.98 167.029 3917.71 174.671C3928.12 180.073 3936.73 188.106 3944.26 197.113C3957.98 213.545 3961.67 232.486 3958.1 253.283C3953.65 279.301 3944.79 304.03 3936.21 328.83C3921.31 371.873 3906.17 414.828 3891.17 457.834C3867.96 524.378 3844.74 590.919 3821.61 657.489C3804.47 706.789 3787.53 756.158 3770.38 805.453C3747.44 871.388 3724.37 937.279 3701.37 1003.19C3696.77 1016.37 3692.25 1029.57 3686.64 1043.16C3683.46 1039.57 3680.69 1035.79 3679.28 1031.57C3652.44 950.783 3625.77 869.94 3599.02 789.126C3594.43 775.258 3589.56 761.484 3584.95 747.625C3579.59 731.536 3574.52 715.349 3568.94 699.339C3567.97 696.55 3565.08 694.428 3563.06 691.338C3563.49 688.17 3563.94 685.661 3564.39 683.152Z" fill="#4285F3"/>
<path d="M358.921 1044.04C351.765 1024.07 344.474 1004.15 337.478 984.132C312.163 911.683 286.925 839.207 261.703 766.725C246.854 724.051 232.108 681.34 217.286 638.657C191.675 564.903 166.04 491.158 140.418 417.409C135.839 404.227 131.274 391.039 126.509 376.398C124.792 370.953 123.568 366.814 121.67 363.012C119.165 357.992 118.552 353.11 121.603 347.878C124.393 349.245 126.549 350.706 128.706 352.167C123.078 341.166 116.125 331.64 109.408 321.95C107.423 319.087 106.103 315.763 105.074 312.15C107.912 311.554 110.154 311.419 112.397 311.367C122.999 311.122 133.78 312.051 144.17 310.446C171.555 306.215 196.217 294.692 219.731 280.291C242.941 266.076 263.836 249.32 280.333 227.533C293.562 210.061 304.056 191.299 305.586 168.746C310.205 177.878 316.02 186.607 319.253 196.206C347.349 279.614 375.01 363.169 402.741 446.699C425.135 514.152 447.442 581.633 469.798 649.098C473.346 659.804 476.949 670.493 480.875 682.596C481.553 685.872 481.883 687.742 481.594 690.086C479.165 694.811 477.048 698.959 475.589 703.327C449.965 780.018 424.416 856.734 398.864 933.449C394.343 947.023 389.85 960.607 385.407 974.207C378.589 995.076 371.952 1016.01 364.889 1036.79C363.947 1039.56 360.96 1041.64 358.921 1044.04Z" fill="#4285F3"/>
<path d="M1017.37 684.035C1018.17 687.402 1018.65 690.001 1018.44 693.501C1015.91 697.409 1013.43 700.201 1012.32 703.46C1008.04 716.044 1004.35 728.827 1000.16 741.444C984.454 788.789 968.642 836.099 952.865 883.42C936.352 932.949 919.856 982.484 903.275 1031.99C901.958 1035.92 901.756 1040.8 896.499 1042.21C888.027 1017.45 879.501 992.704 871.092 967.921C844.381 889.202 817.721 810.467 791.027 731.742C778.428 694.584 765.806 657.434 753.166 620.291C751.882 616.516 750.404 612.808 748.885 607.591C748.866 604.087 748.979 602.061 749.525 599.471C764.345 555.658 778.722 512.405 793.12 469.159C818.554 392.761 844 316.368 869.441 239.973C875.64 258.155 881.93 276.307 888.021 294.526C904.981 345.252 921.929 395.982 938.752 446.754C964.14 523.374 989.418 600.031 1014.75 676.67C1015.48 678.879 1016.27 681.067 1017.37 684.035Z" fill="#F3B300"/>
<path d="M3026.65 693.912C3027.21 691.312 3027.78 688.712 3028.32 685.476C3042.36 642.652 3056.5 600.484 3070.5 558.273C3086.08 511.332 3101.52 464.345 3117.06 417.393C3136.36 359.101 3155.7 300.824 3175.76 242.414C3178 245.966 3179.73 249.57 3180.98 253.335C3193.97 292.525 3206.83 331.758 3219.83 370.945C3243.53 442.368 3267.28 513.772 3291.05 585.17C3292.52 589.577 3294.35 593.864 3296.14 599.036C3296.65 602.618 3297.03 605.373 3297.41 608.128C3290.61 627.551 3283.65 646.923 3277.03 666.408C3250.3 745.051 3223.68 823.733 3196.99 902.39C3182.9 943.919 3168.75 985.429 3154.59 1026.93C3153.02 1031.53 3151.18 1036.04 3148.52 1041.07C3145.58 1037.86 3143.13 1034.34 3141.67 1030.45C3139.46 1024.54 3138.08 1018.33 3136.08 1012.33C3121.06 967.12 3105.98 921.932 3090.92 876.74C3071.74 819.223 3052.58 761.7 3033.33 704.208C3032.02 700.292 3031.94 695.343 3026.65 693.912Z" fill="#F3B300"/>
<path d="M3297.89 608.635C3297.03 605.369 3296.65 602.615 3296.9 598.82C3299.38 594.788 3301.87 592.011 3302.96 588.765C3308.98 570.789 3314.53 552.654 3320.5 534.657C3335.78 488.54 3351.28 442.494 3366.54 396.369C3381.69 350.567 3396.62 304.694 3411.75 258.884C3413.15 254.634 3413.48 249.404 3419.16 247.941C3425.31 266.154 3431.49 284.354 3437.59 302.582C3455.2 355.193 3472.82 407.795 3490.33 460.437C3513.19 529.152 3535.95 597.901 3558.73 666.64C3560.4 671.682 3561.97 676.761 3563.99 682.487C3563.94 685.66 3563.49 688.169 3562.6 691.92C3532.44 782.546 3502.74 871.938 3472.96 961.307C3463.6 989.404 3454.05 1017.44 3444.59 1045.5C3435.39 1018.84 3425.97 992.262 3417.03 965.52C3382.6 862.518 3348.32 759.467 3314 656.43C3308.75 640.682 3303.58 624.909 3297.89 608.635Z" fill="#DA4437"/>
<path d="M749.093 600.035C748.98 602.061 748.867 604.087 748.661 606.853C746.535 613.184 744.375 618.733 742.489 624.373C721.593 686.862 700.699 749.352 679.888 811.869C664.964 856.7 650.274 901.608 635.277 946.414C624.4 978.911 613.192 1011.3 601.173 1043.66C571.154 956.174 542.119 868.742 513.02 781.332C502.833 750.731 492.488 720.183 482.215 689.611C481.885 687.741 481.555 685.872 481.215 683.291C487.116 665.655 493.236 648.801 498.901 631.795C524.88 553.817 550.749 475.802 576.623 397.789C593.069 348.2 609.454 298.591 627.025 248.707C629.774 251.236 631.882 253.878 632.881 256.887C656.277 327.409 679.516 397.982 702.866 468.519C716.374 509.327 729.973 550.105 743.704 590.839C744.815 594.135 747.265 596.98 749.093 600.035Z" fill="#DA4437"/>
<path d="M749.525 599.474C747.264 596.983 744.814 594.138 743.702 590.842C729.972 550.108 716.373 509.329 702.864 468.521C679.515 397.984 656.275 327.411 632.879 256.89C631.881 253.88 629.773 251.239 627.514 248.186C627.098 246.287 627.349 244.628 627.952 241.915C628.49 240.49 628.564 240.096 628.524 239.682C636.413 209.03 652.329 184.158 678.744 165.761C704.42 147.879 733.079 143.159 763.089 144.57C789.372 145.806 811.425 158.026 831.247 174.73C843.334 184.916 854.536 195.824 860.361 210.884C863.836 219.867 866.387 229.208 869.397 239.181C843.999 316.37 818.553 392.764 793.119 469.161C778.722 512.407 764.345 555.66 749.525 599.474Z" fill="#DD4934"/>
<path d="M3419.12 247.155C3413.48 249.404 3413.15 254.635 3411.75 258.884C3396.62 304.694 3381.69 350.568 3366.54 396.37C3351.28 442.495 3335.78 488.541 3320.5 534.658C3314.53 552.655 3308.98 570.79 3302.96 588.765C3301.87 592.012 3299.38 594.788 3296.77 597.993C3294.35 593.861 3292.52 589.574 3291.05 585.167C3267.28 513.769 3243.53 442.366 3219.83 370.943C3206.83 331.755 3193.97 292.522 3180.98 253.332C3179.73 249.567 3178 245.963 3176.08 241.651C3177.7 234.36 3179.81 227.725 3181.75 221.037C3186.32 205.266 3195.09 192.236 3207.18 181.274C3224.33 165.72 3242.62 151.806 3265.95 147.35C3309.53 139.026 3349.37 147.126 3382.33 178.191C3401.87 196.605 3413.68 219.948 3419.12 247.155Z" fill="#DD4934"/>
<path d="M481.594 690.086C492.486 720.184 502.831 750.732 513.018 781.333C542.117 868.743 571.152 956.174 600.655 1044.24C595.542 1071.74 581.469 1093.86 562.949 1113.53C547.978 1129.43 530.245 1141 508.633 1144.82C468.819 1151.87 432.511 1144.79 400.823 1117.63C382.11 1101.59 372.028 1080.81 363.381 1058.77C361.688 1054.45 360.455 1049.96 358.965 1044.79C360.96 1041.64 363.946 1039.56 364.888 1036.79C371.952 1016.01 378.589 995.077 385.406 974.207C389.849 960.607 394.343 947.023 398.864 933.449C424.415 856.734 449.965 780.018 475.589 703.327C477.048 698.959 479.165 694.811 481.594 690.086Z" fill="#4983EA"/>
<path d="M3444.68 1046.31C3454.05 1017.44 3463.6 989.406 3472.97 961.309C3502.74 871.94 3532.44 782.548 3562.62 692.582C3565.08 694.429 3567.97 696.551 3568.94 699.341C3574.52 715.35 3579.59 731.538 3584.95 747.626C3589.56 761.485 3594.43 775.26 3599.02 789.127C3625.77 869.942 3652.44 950.784 3679.28 1031.57C3680.69 1035.8 3683.46 1039.57 3686.25 1043.78C3681.5 1063.27 3674.67 1082.16 3662.71 1098.22C3641.7 1126.44 3613.66 1143.08 3577.99 1146.53C3564.28 1147.86 3550.87 1147.67 3537.49 1144.97C3511.88 1139.8 3492.14 1125.16 3475.63 1105.65C3461.06 1088.43 3450.34 1069.12 3444.68 1046.31Z" fill="#4983EA"/>
<path d="M3026.16 694.434C3031.94 695.341 3032.02 700.29 3033.33 704.206C3052.58 761.698 3071.74 819.221 3090.92 876.738C3105.98 921.931 3121.06 967.118 3136.08 1012.33C3138.08 1018.32 3139.46 1024.54 3141.67 1030.45C3143.13 1034.34 3145.58 1037.86 3148.24 1041.78C3144.11 1058.2 3140.68 1075.05 3131.36 1089.41C3110.4 1121.71 3081.8 1142.12 3042.44 1146.5C3003.47 1150.84 2971.11 1138.34 2941.97 1112.9C2923.13 1096.45 2913.58 1075.78 2907.3 1052C2914.44 1030.25 2921.79 1009.22 2928.79 988.062C2961.14 890.378 2993.39 792.662 3026.16 694.434Z" fill="#E8B304"/>
<path d="M896.66 1042.96C901.756 1040.8 901.958 1035.92 903.276 1031.99C919.856 982.484 936.352 932.949 952.865 883.419C968.642 836.098 984.455 788.789 1000.16 741.444C1004.35 728.826 1008.04 716.043 1012.32 703.459C1013.43 700.201 1015.91 697.409 1018.43 694.188C1025.15 711.537 1031.37 729.043 1037.21 746.674C1070.75 847.955 1104.2 949.266 1138.13 1051.06C1134.54 1062.8 1130.75 1074.13 1126.39 1085.25C1122.64 1094.79 1115.17 1101.66 1107.9 1108.54C1089.28 1126.17 1068.9 1140.73 1042.84 1145.23C990.252 1154.32 945.877 1136.15 915.109 1091C910.7 1084.53 908.156 1076.7 905.335 1069.27C902.151 1060.88 899.63 1052.24 896.66 1042.96Z" fill="#E8B304"/>
<path d="M1674.39 293.543C1674.49 250.58 1674.58 207.617 1674.66 164.653C1674.68 155.328 1674.74 146.001 1674.65 136.676C1674.45 114.224 1684.8 97.4398 1703.76 86.6744C1722.48 76.0365 1742.1 76.6978 1760.86 87.4445C1805.59 113.064 1850.18 138.918 1895.16 165.88C1882.9 188.963 1870.31 210.852 1857.68 232.72C1846.72 251.714 1835.64 270.64 1824.82 289.719C1823.42 292.186 1819.39 294.502 1822.38 298.794C1819.18 301.114 1816.42 302.981 1813.59 304.732C1770.93 331.13 1734.41 364.284 1704.61 404.639C1694.37 418.505 1685.09 433.077 1675.21 446.766C1674.89 445.451 1674.72 444.696 1674.68 443.016C1674.86 394.222 1674.92 346.353 1674.93 298.485C1674.93 296.837 1674.58 295.19 1674.39 293.543Z" fill="#EA4534"/>
<path d="M2376.84 993.908C2376.79 1045.46 2376.75 1097.01 2376.66 1148.57C2376.64 1162.16 2373.66 1174.99 2365.33 1186.03C2348.42 1208.44 2317.62 1217.13 2289.64 1201.05C2271.49 1190.62 2253.4 1180.09 2235.25 1169.65C2208.47 1154.24 2181.67 1138.86 2154.05 1122.97C2153.22 1122.47 2152.96 1122.01 2153.45 1121.54C2172.96 1088.23 2192.03 1055.43 2210.98 1022.55C2216.62 1012.77 2221.95 1002.79 2228.3 992.75C2247.48 992.557 2265.79 992.533 2284.09 992.475C2314.38 992.38 2344.66 992.263 2375.25 992.455C2376.07 993.052 2376.49 993.436 2376.84 993.908Z" fill="#34A754"/>
<path d="M1673.51 293.574C1674.58 295.192 1674.93 296.84 1674.93 298.487C1674.92 346.356 1674.86 394.224 1673.99 443.085C1671.9 444.461 1670.5 444.616 1669.39 445.26C1635.44 464.906 1601.6 484.741 1567.53 504.17C1560.42 508.225 1552.47 510.81 1544.9 514.072C1533.3 494.324 1521.62 474.618 1510.1 454.817C1495.23 429.243 1480.11 403.802 1465.78 377.924C1447.57 345.039 1464.8 304.935 1500.92 295.306C1505.66 294.042 1510.77 293.748 1515.71 293.736C1568.01 293.607 1620.32 293.626 1673.51 293.574Z" fill="#FBBB04"/>
<path d="M1896.91 165.282C1906.08 149.114 1915.16 132.895 1924.44 116.789C1941.53 87.13 1958.36 57.3113 1975.99 27.9739C1998.3 -9.1473 2051.2 -9.00431 2073.74 27.8872C2078.25 35.2602 2082.54 42.7604 2086.88 50.2344C2108.9 88.1766 2130.9 126.129 2153.18 165.173C2153.61 166.787 2153.71 167.317 2153 168C2144.65 172.228 2136.96 176.166 2129.46 180.427C2109.53 191.754 2089.62 203.135 2069.79 214.658C2055.44 222.998 2041.25 231.601 2026.28 239.946C2023.77 239.02 2021.85 238.402 2020.15 237.423C1989.45 219.818 1958.73 202.252 1928.12 184.485C1917.56 178.353 1907.3 171.698 1896.91 165.282Z" fill="#4286F4"/>
<path d="M2152.96 1122.01C2152.96 1122.01 2153.22 1122.47 2153.4 1122.67C2127.42 1168 2101.06 1213.03 2075.17 1258.32C2054.98 1293.67 2011.72 1296.36 1987.27 1274.04C1981.75 1268.99 1977.19 1262.55 1973.37 1256.05C1947.81 1212.49 1922.56 1168.73 1897.31 1123.85C1900.14 1120.77 1902.75 1118.69 1905.61 1117.03C1929.51 1103.22 1953.43 1089.43 1977.4 1075.74C1993.84 1066.35 2010.39 1057.13 2027.35 1048.34C2048.93 1061.25 2070.02 1073.7 2091.16 1086.06C2111.73 1098.09 2132.35 1110.03 2152.96 1122.01Z" fill="#FBBB04"/>
<path d="M1674.45 993.878C1622.8 993.809 1571.14 993.793 1519.48 993.634C1507 993.595 1495.09 991.053 1484.39 984.097C1459.38 967.836 1450.94 934.188 1465.86 908.451C1485.55 874.485 1505.16 840.477 1524.83 806.5C1531 795.851 1537.24 785.245 1544.75 774.277C1548.55 774.759 1551.28 775.182 1553.52 776.467C1586.3 795.299 1618.95 814.358 1651.79 833.08C1659.19 837.296 1667.2 840.432 1674.95 844.995C1675.04 894.753 1675.12 943.58 1675.05 992.796C1674.91 993.184 1674.45 993.878 1674.45 993.878Z" fill="#4285F4"/>
<path d="M1674.54 994.819C1674.45 993.876 1674.91 993.183 1675.97 992.875C1722.7 992.581 1768.37 992.579 1814.03 992.632C1817.68 992.637 1821.32 993.023 1825 994.027C1827.95 1001.07 1830.42 1007.57 1833.83 1013.52C1852.29 1045.71 1871.06 1077.73 1889.52 1109.92C1891.93 1114.13 1893.18 1119.02 1894.96 1123.59C1855.53 1146.37 1816.11 1169.16 1776.68 1191.94C1770.34 1195.6 1764.13 1199.48 1757.65 1202.85C1719.46 1222.71 1674.19 1193.96 1674.55 1152.56C1675.01 1100.3 1674.63 1048.03 1674.54 994.819Z" fill="#EA4335"/>
<path d="M2376.74 293.301C2393.71 293.424 2410.68 293.627 2427.64 293.654C2462.93 293.708 2498.24 294.657 2533.48 293.409C2573.8 291.981 2607.1 337.681 2583.52 379.17C2571.38 400.539 2559.03 421.789 2546.71 443.054C2532.89 466.906 2518.99 490.714 2504.19 515.04C2501.46 514.725 2499.57 514.058 2497.86 513.076C2472.89 498.697 2447.91 484.321 2422.99 469.85C2406.96 460.54 2391.01 451.075 2375.02 440.771C2375.03 391.328 2375.03 342.794 2375.47 294.037C2375.91 293.814 2376.74 293.301 2376.74 293.301Z" fill="#FBBB04"/>
<path d="M2377.78 993.812C2376.49 993.437 2376.07 993.052 2375.27 991.507C2374.97 942.826 2374.98 895.394 2375.36 847.402C2377.61 845.496 2379.38 843.977 2381.36 842.83C2416.13 822.729 2450.87 802.58 2485.76 782.696C2492 779.139 2498.89 776.724 2505.48 773.781C2521.79 801.591 2538.12 829.39 2554.4 857.214C2563.81 873.292 2573.3 889.325 2582.48 905.53C2596.01 929.389 2594.32 952.321 2577.46 973.33C2565.5 988.227 2549.05 993.557 2530.68 993.619C2480.03 993.791 2429.38 993.701 2377.78 993.812Z" fill="#4285F4"/>
<path d="M2376.75 292.411C2376.74 293.302 2375.91 293.815 2374.54 293.876C2324.81 293.976 2276.44 294.015 2227.64 293.583C2213.04 268.733 2198.95 244.315 2184.7 219.988C2174.49 202.548 2164.08 185.229 2153.75 167.856C2153.71 167.317 2153.61 166.787 2153.51 165.879C2179.24 150.834 2204.92 136.177 2230.6 121.518C2251.66 109.494 2272.4 96.8559 2293.86 85.5869C2324.41 69.543 2362.76 85.5314 2373.33 118.344C2375.53 125.164 2376.49 132.661 2376.53 139.855C2376.83 190.409 2376.73 240.966 2376.75 292.411Z" fill="#34A754"/>
<path d="M2505.63 517.719C2521.84 526.768 2538.12 535.685 2554.24 544.895C2582.78 561.208 2611.25 577.669 2639.71 594.122C2671.12 612.274 2679.09 651.417 2656.78 679.837C2652.58 685.199 2647.06 690.057 2641.17 693.493C2596.44 719.62 2551.47 745.335 2505.44 771.15C2503.55 770.032 2502.7 768.992 2502.04 767.847C2478.85 727.824 2455.67 687.794 2432.51 647.75C2431.69 646.328 2431.14 644.747 2430.79 642.527C2433.29 638.093 2435.49 634.385 2437.64 630.652C2458.01 595.321 2478.32 559.957 2498.82 524.706C2500.41 521.979 2503.33 520.03 2505.63 517.719Z" fill="#EA4335"/>
<path d="M1544.48 771.626C1499.45 745.73 1454.53 719.627 1409.35 694C1371.55 672.559 1370.82 617.292 1407.96 595.588C1432.96 580.973 1458.1 566.573 1483.2 552.124C1503.4 540.498 1523.64 528.943 1545.12 517.426C1548.11 520.313 1549.91 523.091 1551.58 525.954C1574.2 564.935 1596.81 603.927 1619.26 643.572C1600.29 676.783 1581.55 709.374 1562.66 741.873C1556.82 751.919 1550.55 761.716 1544.48 771.626Z" fill="#34A754"/>
<path d="M305.48 167.82C304.057 191.3 293.562 210.062 280.333 227.534C263.837 249.321 242.942 266.078 219.732 280.292C196.217 294.694 171.556 306.216 144.171 310.447C133.781 312.052 123 311.123 112.398 311.368C110.154 311.42 107.913 311.555 104.665 311.765C103.045 310.499 102.43 309.121 101.687 306.98C97.4498 299.823 98.7884 293.59 102.787 287.933C107.469 281.307 112.704 275.071 117.617 268.63C117.535 268.593 117.495 268.768 118.033 268.565C118.976 267.731 119.38 267.1 119.629 266.465C119.474 266.461 119.497 266.771 120.035 266.569C120.979 265.735 121.385 265.104 121.632 264.47C121.473 264.466 121.497 264.782 122.034 264.594C123.005 263.802 123.438 263.199 123.711 262.6C123.551 262.605 123.598 262.922 124.151 262.722C125.452 261.657 126.2 260.794 127.395 259.758C128.413 259.235 128.797 258.739 129.525 257.953C130.47 257.221 130.882 256.634 131.707 255.926C132.662 255.514 132.993 255.066 133.668 254.281C134.672 253.486 135.12 252.872 135.41 252.254C135.252 252.251 135.262 252.567 135.82 252.417C136.842 251.675 137.304 251.084 137.602 250.496C137.438 250.499 137.474 250.827 138.041 250.644C139.409 249.625 140.21 248.788 141.464 247.824C142.511 247.391 142.889 246.912 143.634 246.095C145.362 244.816 146.505 243.702 147.533 242.558C147.419 242.529 147.391 242.764 147.974 242.604C149.397 241.619 150.238 240.795 151.521 239.86C152.551 239.465 152.923 239.006 153.711 238.187C156.63 236.05 158.92 234.097 161.163 232.129C161.117 232.114 161.168 232.199 161.829 232.015C173.341 224.152 183.934 216.071 195.101 208.88C215.777 195.567 236.741 182.698 257.683 169.803C265.877 164.757 274.255 159.995 282.693 155.364C290.105 151.295 297.281 151.352 303.614 157.752C304.2 160.799 304.786 163.846 305.48 167.82Z" fill="#4C8AF4"/>
<path d="M2430.46 643.239C2431.14 644.746 2431.69 646.327 2432.51 647.749C2455.67 687.793 2478.85 727.823 2502.04 767.845C2502.7 768.99 2503.55 770.031 2504.89 771.512C2505.47 771.904 2505.55 772.841 2505.52 773.309C2498.89 776.72 2492 779.136 2485.76 782.693C2450.87 802.576 2416.13 822.726 2381.36 842.827C2379.38 843.974 2377.61 845.493 2374.63 847.409C2372.05 847.987 2370.59 847.995 2369.28 847.327C2379.27 826.366 2390.36 806.582 2398.69 785.697C2417.47 738.605 2425.66 689.327 2425.71 638.758C2427.69 640.344 2429.08 641.791 2430.46 643.239Z" fill="#537EE1"/>
<path d="M1896.63 165.289C1907.3 171.695 1917.56 178.35 1928.12 184.481C1958.73 202.249 1989.45 219.815 2020.14 237.42C2021.85 238.399 2023.76 239.017 2026.65 240.335C2028.81 241.781 2029.91 242.696 2030.1 243.777C2019.9 244.269 2010.61 244.466 2001.34 244.94C1937.49 248.204 1878.18 266.703 1822.78 298.288C1819.39 294.502 1823.43 292.187 1824.82 289.72C1835.64 270.641 1846.72 251.714 1857.69 232.721C1870.31 210.852 1882.9 188.963 1895.7 166.352C1895.89 165.621 1896.35 165.299 1896.63 165.289Z" fill="#557EDF"/>
<path d="M2430.79 642.529C2429.08 641.795 2427.69 640.348 2425.58 637.815C2424.36 629.448 2423.78 622.172 2423.39 614.886C2421.36 576.717 2412.51 540.062 2399.44 504.261C2391.19 481.68 2380.09 460.506 2369.46 439.578C2371.75 440.403 2373.39 441.042 2375.03 441.682C2391.01 451.077 2406.95 460.542 2422.99 469.852C2447.91 484.323 2472.89 498.699 2497.86 513.078C2499.57 514.059 2501.45 514.727 2503.92 515.688C2504.82 516.119 2505.04 516.403 2505.45 517.204C2503.33 520.032 2500.41 521.982 2498.82 524.708C2478.32 559.96 2458.01 595.323 2437.64 630.654C2435.49 634.388 2433.29 638.096 2430.79 642.529Z" fill="#EB4E31"/>
<path d="M1544.44 771.981C1550.55 761.714 1556.82 751.917 1562.66 741.872C1581.55 709.372 1600.29 676.782 1619.73 643.256C1621.58 640.817 1622.79 639.348 1624.02 638.824C1623.34 678.291 1628.47 716.037 1638.95 753.096C1647.77 784.284 1660.75 813.705 1676.05 842.354C1675.45 843.101 1675.17 843.569 1674.93 844.066C1667.2 840.433 1659.19 837.296 1651.79 833.081C1618.95 814.358 1586.3 795.3 1553.52 776.468C1551.28 775.182 1548.55 774.759 1545.27 773.861C1544.4 773.309 1544.36 772.826 1544.44 771.981Z" fill="#4189E3"/>
<path d="M1895.36 1123.7C1893.17 1119.02 1891.93 1114.13 1889.52 1109.92C1871.06 1077.73 1852.29 1045.71 1833.83 1013.52C1830.42 1007.57 1827.94 1001.07 1825.3 993.982C1825.57 993.142 1825.76 993.733 1826.48 993.791C1827.69 993.89 1828.18 993.931 1829.12 994.524C1841.08 1000.29 1852.48 1005.75 1864.1 1010.68C1904.69 1027.93 1946.71 1039.56 1990.92 1042.36C2003.82 1043.18 2016.72 1044 2029.28 1045.22C2028.26 1046.35 2027.57 1047.09 2026.89 1047.83C2010.39 1057.13 1993.85 1066.35 1977.4 1075.74C1953.43 1089.43 1929.51 1103.22 1905.61 1117.03C1902.75 1118.68 1900.14 1120.76 1897.01 1123.2C1896.61 1123.75 1895.77 1123.82 1895.36 1123.7Z" fill="#EB4E31"/>
<path d="M1623.99 637.881C1622.78 639.35 1621.57 640.818 1619.89 642.602C1596.81 603.927 1574.2 564.935 1551.57 525.954C1549.91 523.091 1548.1 520.313 1545.76 517.016C1544.99 516.003 1544.87 515.46 1544.85 514.49C1552.47 510.811 1560.42 508.226 1567.53 504.171C1601.6 484.741 1635.44 464.906 1669.38 445.261C1670.5 444.616 1671.9 444.462 1673.86 444.012C1674.72 444.699 1674.89 445.454 1674.9 447.463C1668.67 460.882 1662.05 472.807 1656.64 485.254C1635.48 533.893 1624.21 584.725 1623.99 637.881Z" fill="#E7B90C"/>
<path d="M17.4375 114.465C34.2161 103.95 52.9095 99.2774 72.2789 100.012C94.7933 100.866 115.59 96.4152 135.672 86.6334C140.892 84.0908 147.03 83.4713 152.695 81.7949C164.403 78.3301 176.083 74.7722 187.762 71.2088C200.451 67.3367 213.231 63.4692 226.67 65.421C235.447 66.696 244.124 68.8568 252.712 71.1265C255.038 71.7414 257.113 73.971 258.905 75.8411C273.018 90.5684 287.308 105.153 299.201 121.822C302.341 126.224 304.777 130.909 301.897 137.222C300.34 138.102 299.644 138.365 299.017 137.825C296.964 132.964 295.461 128.388 292.585 124.968C287.676 119.131 282.426 113.34 276.406 108.72C250.825 89.0855 224.799 85.6955 197.657 105.808C189.68 111.718 180.99 116.931 172.005 121.136C163.999 124.882 155.133 126.794 146.981 128.94C165.161 116.269 182.872 103.963 200.918 92.1706C209.096 86.8264 217.941 82.5022 226.483 77.7153C221.873 76.3275 217.49 75.8632 213.616 77.0546C199.057 81.5327 184.11 85.3347 170.317 91.6077C136.787 106.857 106.665 127.316 81.3344 154.428C77.7895 158.222 73.2649 161.101 69.2356 163.666C73.0085 157.171 76.4839 151.226 80.5396 145.707C84.9459 139.711 89.8917 134.112 95.1534 127.664C92.5166 126.748 91.0225 126.229 89.4206 125.74C89.3129 125.77 89.1399 125.912 89.107 125.14C87.9094 119.006 83.6836 117.576 79.2477 117.967C72.3629 118.573 65.4837 119.76 58.7393 121.302C51.6374 122.925 44.775 125.607 37.6653 127.183C29.1851 129.062 25.566 126.871 22.8885 118.559C21.9104 115.523 20.7771 113.823 17.4375 114.465ZM103.358 119.871L103.343 119.395C103.343 119.395 102.952 119.964 102.153 120.476C101.65 120.879 101.254 121.368 100.228 121.999C99.8831 122.296 99.538 122.594 99.1929 122.891C99.812 122.604 100.431 122.318 101.833 121.498C102.326 121.09 102.725 120.604 103.358 119.871Z" fill="#F1534E"/>
<path d="M16.9584 114.703C20.7756 113.826 21.9089 115.525 22.887 118.562C25.5644 126.874 29.1836 129.065 37.6638 127.185C44.7735 125.61 51.6359 122.928 58.7378 121.305C65.4821 119.763 72.3614 118.576 79.2462 117.969C83.6821 117.579 87.9079 119.008 88.3339 125.179C84.5946 127.121 81.2565 127.747 78.6575 129.481C71.2582 134.418 64.1851 139.842 56.9378 145.009C44.9131 153.583 31.8646 159.503 16.8348 160.048C13.4277 160.172 10.1267 160.228 8.7552 164.194C-0.919094 151.315 -1.60249 136.291 6.71301 124.637C9.33993 120.955 13.1903 118.147 16.9584 114.703Z" fill="#9F141A"/>
<path d="M8.83594 164.245C10.1283 160.225 13.4294 160.169 16.8365 160.046C31.8662 159.501 44.9147 153.581 56.9394 145.007C64.1868 139.839 71.2598 134.416 78.6592 129.479C81.2581 127.745 84.5963 127.118 88.3685 125.949C89.14 125.912 89.313 125.77 89.1867 126.429C86.8391 129.891 84.7884 132.852 82.3669 135.469C71.8494 146.839 60.8861 157.816 50.7653 169.524C44.7826 176.445 40.0702 184.463 34.2446 191.621C28.2949 186.226 22.8871 181.198 17.4794 176.169C15.3322 173.243 13.1849 170.317 10.593 166.398C9.86114 164.92 9.49423 164.505 9.04747 164.161C9.04747 164.161 8.91502 164.298 8.83594 164.245Z" fill="#791016"/>
<path d="M93.1838 382.553C95.3463 387.237 97.5087 391.921 99.6712 396.605C99.1969 396.993 98.7227 397.38 98.2484 397.768C96.4979 396.717 94.2917 396.036 93.0815 394.546C89.321 389.915 85.3345 385.304 82.5243 380.097C74.6807 365.566 66.8959 350.961 60.0435 335.949C55.4011 325.779 52.8819 314.656 48.4938 304.35C43.0728 291.618 36.3799 279.431 30.8468 266.743C27.0349 258.001 24.306 248.79 20.9808 239.831C20.3151 238.037 19.1422 236.431 17.5883 233.816C16.9492 232.557 16.925 232.221 17.2246 231.817C17.5485 231.749 18.1944 231.893 18.8351 232.284C21.3269 236.096 23.5238 239.379 24.9656 242.966C29.6219 254.549 33.1362 266.655 40.2618 276.699C42.8813 275.784 44.7558 275.129 46.8792 275.076C49.1937 279.039 51.2591 282.4 52.6794 285.975C51.4123 288.097 50.1761 290.057 50.3272 291.902C50.5075 294.105 51.876 296.21 52.5134 298.556C52.1221 299.39 52.3848 299.819 53.0348 300.05C52.9844 300.059 52.9796 299.958 52.8921 300.75C58.7863 324.299 69.3346 344.862 82.9941 363.888C83.8014 365.013 85.7931 365.287 87.1749 365.988C87.1161 366.018 87.0793 365.891 87.0124 366.318C87.6722 367.108 88.3989 367.471 89.498 367.955C89.8703 368.076 90.5946 368.374 90.787 368.883C91.6228 370.252 92.2663 371.113 92.8578 372.43C91.6195 373.159 90.4332 373.431 89.0555 373.53C88.6658 373.333 88.4675 373.309 88.2691 373.284C88.3678 373.646 88.4664 374.008 88.5853 374.97C89.5569 378.274 88.7756 382.115 93.1838 382.553Z" fill="#AC9775"/>
<path d="M298.948 138.632C299.643 138.368 300.339 138.105 301.588 137.812C302.818 144.059 303.494 150.335 303.892 157.181C297.282 151.352 290.107 151.295 282.694 155.364C274.257 159.995 265.878 164.757 257.684 169.803C236.743 182.699 215.778 195.567 195.103 208.88C183.936 216.071 173.343 224.152 161.922 231.325C163.486 228.399 165.3 225.569 167.802 223.626C192.754 204.253 219.039 186.837 246.089 170.541C248.774 168.923 250.817 166.238 253.76 163.699C256.746 162.23 259.215 161.259 261.503 159.966C274.009 152.898 286.471 145.751 298.948 138.632Z" fill="#7E1B26"/>
<path d="M89.246 373.703C90.4324 373.431 91.6187 373.159 93.2689 372.156C94.2479 371.002 94.6711 370.501 95.5918 369.795C96.5376 368.102 97.3595 366.471 97.1452 364.989C96.7956 362.572 95.7699 360.253 95.5502 358.147C98.6191 359.41 98.9116 357.988 98.3067 356.119C97.2138 352.743 95.9199 349.431 95.304 346.385C100.602 352.103 104.597 358.837 113.744 356.257C113.573 353.417 113.4 350.55 113.688 347.785C115.285 347.643 116.422 347.399 118.014 346.958C118.47 346.761 119.073 345.972 119.018 345.997C118.963 346.022 118.937 345.903 118.971 346.53C119.706 347.447 120.407 347.737 121.057 348.051C121.007 348.076 120.971 347.971 120.971 347.971C118.553 353.111 119.166 357.992 121.672 363.013C123.57 366.815 124.793 370.953 126.27 375.677C121.087 372.106 115.57 368.514 108.353 367.243C107.181 368.857 105.789 370.774 104.738 372.22C107.14 378.312 109.358 383.938 111.575 389.564C110.944 390.013 110.313 390.462 109.682 390.911C105.03 386.292 100.379 381.674 95.2556 376.587C94.413 378.338 93.7655 379.684 93.1505 381.792C88.7748 382.115 89.5561 378.274 88.7578 374.806C88.9107 374.042 89.246 373.703 89.246 373.703Z" fill="#BDAE8F"/>
<path d="M18.1935 231.894C18.1935 231.894 17.5475 231.75 16.5645 231.931C15.1597 232.261 14.7379 232.411 14.3162 232.56C1.64741 228.037 -1.44821 212.293 4.3157 197.587C5.97402 193.357 9.10058 189.701 12.2314 186.23C13.9968 189.684 14.24 194.352 16.3186 195.408C25.4925 200.072 23.0726 206.691 20.9272 213.862C19.7576 217.771 19.4887 221.95 18.6828 226.737C18.4325 228.944 18.313 230.419 18.1935 231.894Z" fill="#DEB3A6"/>
<path d="M18.815 226.005C19.4901 221.948 19.759 217.769 20.9286 213.86C23.074 206.689 25.4939 200.07 16.32 195.406C14.2414 194.35 13.9982 189.682 12.8359 185.841C14.2864 182.514 15.8111 180.024 17.4074 176.852C22.8868 181.198 28.2946 186.226 34.1841 192.379C32.5857 202.933 30.5056 212.363 27.7826 221.886C24.3648 223.32 21.5899 224.663 18.815 226.005Z" fill="#C58A7E"/>
<path d="M9.14844 164.583C9.49223 164.508 9.85915 164.923 10.2953 165.79C9.88475 165.947 9.48708 165.557 9.14844 164.583Z" fill="#9F141A"/>
<path d="M628.239 239.863C628.567 240.095 628.493 240.489 628.116 241.09C627.626 240.888 627.635 240.463 628.239 239.863Z" fill="#DA4437"/>
<path d="M14.6133 233.013C14.7384 232.408 15.1602 232.258 16.2411 231.996C16.9245 232.219 16.9487 232.555 16.9774 233.396C16.2912 233.757 15.6005 233.613 14.6133 233.013Z" fill="#C58A7E"/>
<path d="M101.816 307.74C102.431 309.119 103.046 310.498 104.071 312.263C106.105 315.762 107.425 319.086 109.41 321.949C116.127 331.639 123.08 341.165 128.709 352.166C126.552 350.706 124.395 349.245 121.605 347.877C120.972 347.97 121.007 348.074 121.039 347.428C120.359 346.488 119.648 346.195 118.937 345.902C118.937 345.902 118.964 346.021 119.164 345.411C118.396 342.692 117.697 340.166 114.022 341.134C103.106 325.74 92.5971 310.824 81.8426 295.287C81.3346 293.817 81.0727 292.968 81.4321 292.052C82.4655 291.926 82.8777 291.867 83.7644 292.1C85.1226 293.066 86.0063 293.74 87.1837 294.995C89.8413 298.271 91.9733 301.232 94.6441 303.579C96.6807 305.369 99.4003 306.382 101.816 307.74Z" fill="#B38D69"/>
<path d="M2029.28 1045.22C2040.85 1044.02 2052.11 1043.47 2063.31 1042.37C2118.81 1036.9 2171.03 1020.89 2221.03 992.997C2224.12 992.756 2225.77 992.83 2227.42 992.903C2221.95 1002.79 2216.62 1012.76 2210.98 1022.55C2192.03 1055.43 2172.96 1088.23 2153.44 1121.54C2132.36 1110.03 2111.73 1098.09 2091.16 1086.06C2070.02 1073.7 2048.93 1061.25 2027.36 1048.34C2027.58 1047.09 2028.26 1046.35 2029.28 1045.22Z" fill="#E7B90C"/>
<path d="M2228.3 992.747C2225.77 992.828 2224.12 992.754 2221.65 992.794C2224.24 990.407 2227.48 987.614 2231.09 985.451C2260.05 968.116 2286.35 947.375 2310.03 923.372C2332.28 900.815 2351.76 876.038 2368.56 848.386C2370.59 847.995 2372.05 847.987 2374.25 847.969C2374.98 895.391 2374.98 942.823 2374.95 991.203C2344.66 992.26 2314.37 992.377 2284.09 992.473C2265.79 992.53 2247.48 992.554 2228.3 992.747Z" fill="#4188E5"/>
<path d="M2230.24 300.028C2212.64 291.42 2195.39 281.969 2177.36 274.377C2136.25 257.071 2093.26 247.325 2048.64 245.078C2043.34 244.81 2038.04 244.359 2031.88 243.802C2029.91 242.696 2028.81 241.781 2027.34 240.474C2041.24 231.597 2055.44 222.995 2069.79 214.655C2089.61 203.131 2109.52 191.75 2129.46 180.423C2136.96 176.162 2144.65 172.224 2153 167.996C2164.08 185.226 2174.49 202.545 2184.7 219.984C2198.95 244.312 2213.04 268.73 2227.78 294.202C2228.99 296.872 2229.62 298.45 2230.24 300.028Z" fill="#4189E2"/>
<path d="M1676.06 842.355C1689.01 862.302 1702.27 882.099 1717.78 900.393C1746.37 934.12 1779.59 962.299 1817.28 985.303C1820.67 987.371 1823.98 989.561 1827.19 992.326C1826.61 993.217 1826.19 993.477 1825.76 993.737C1825.76 993.737 1825.57 993.145 1825.27 993.191C1821.32 993.027 1817.68 992.64 1814.03 992.636C1768.37 992.582 1722.7 992.584 1676.12 992.49C1675.12 943.582 1675.05 894.755 1674.95 844.997C1675.17 843.571 1675.45 843.103 1676.06 842.355Z" fill="#517EE2"/>
<path d="M2230.74 300.541C2229.62 298.452 2228.99 296.875 2228.22 294.675C2276.44 294.014 2324.81 293.975 2374.11 294.098C2375.03 342.794 2375.02 391.328 2375.02 440.771C2373.39 441.041 2371.75 440.401 2369.46 439.576C2335.99 384.637 2292.6 340.182 2238.77 305.893C2236.26 304.288 2233.75 302.666 2230.74 300.541Z" fill="#E8B90C"/>
<path d="M86.8895 294.414C86.0058 293.74 85.1221 293.066 83.4972 291.565C81.514 289.805 80.272 288.873 79.0086 287.971C78.9873 288 79.059 287.993 78.8974 287.491C78.1541 286.639 77.5723 286.289 76.9818 285.982C76.973 286.025 77.0596 286.012 76.9077 285.499C76.1638 284.638 75.5718 284.29 74.9728 283.987C74.9657 284.033 75.0573 284.021 74.9173 283.497C74.1723 282.632 73.5673 282.29 72.9529 281.997C72.9435 282.044 73.04 282.047 73.0258 281.405C72.3222 279.701 71.6328 278.64 70.7862 277.283C70.374 276.607 70.0476 276.305 69.3206 275.581C68.3193 274.7 67.6473 274.319 66.9716 273.987C66.9679 274.036 67.0651 274.017 66.954 273.47C66.224 272.591 65.6053 272.258 64.9807 271.978C64.9749 272.03 65.0781 272.01 65.2145 271.279C62.5181 265.742 60.2605 260.456 56.7328 256.229C49.3837 247.425 43.531 237.088 32.6574 230.81C31.8299 228.328 31.2864 226.396 31.382 224.238C35.0508 220.766 38.0805 217.522 41.2319 213.682C41.2679 212.692 41.1822 212.296 41.0282 211.896C40.96 211.892 40.9431 212.028 41.6226 211.98C47.1784 207.769 52.0547 203.606 56.9041 200.269C60.2661 218.578 68.7641 233.085 81.2681 245.774C92.5356 257.208 107.353 259.318 121.119 250.415C137.553 239.788 153.222 227.981 169.247 216.719C188.52 203.173 207.559 189.268 227.233 176.33C235.145 171.127 244.474 168.077 253.158 164.047C250.817 166.236 248.774 168.921 246.088 170.539C219.038 186.835 192.753 204.251 167.802 223.624C165.299 225.567 163.486 228.397 161.261 231.507C161.169 232.198 161.118 232.112 160.428 232.123C155.756 232.331 153.515 234.386 153.082 238.371C152.924 239.004 152.552 239.463 150.922 239.985C149.051 241.07 148.221 241.916 147.392 242.762C147.392 242.762 147.42 242.528 146.873 242.58C145.234 243.842 144.142 245.05 143.049 246.259C142.89 246.91 142.512 247.389 140.874 247.961C139.046 249.093 138.261 249.959 137.476 250.825C137.476 250.825 137.439 250.497 137.078 250.697C136.232 251.453 135.747 252.009 135.263 252.565C135.263 252.565 135.253 252.249 134.9 252.5C134.07 253.32 133.591 253.89 133.113 254.459C132.994 255.064 132.664 255.512 131.24 256.164C129.905 257.048 129.449 257.572 128.993 258.095C128.798 258.737 128.414 259.233 126.814 259.911C125.057 261.132 124.328 262.026 123.599 262.92C123.599 262.92 123.552 262.603 123.182 262.799C122.373 263.59 121.936 264.186 121.498 264.781C121.498 264.781 121.474 264.464 121.115 264.701C120.336 265.548 119.917 266.159 119.498 266.77C119.498 266.77 119.475 266.459 119.113 266.696C118.332 267.544 117.914 268.155 117.496 268.766C117.496 268.766 117.536 268.592 116.897 268.592C104.608 275.085 96.6456 285.769 86.8895 294.414Z" fill="#99131A"/>
<path d="M87.1836 294.995C96.6459 285.77 104.609 275.085 116.979 268.629C112.705 275.07 107.47 281.305 102.788 287.931C98.7898 293.588 97.4512 299.821 101.689 306.978C99.4001 306.382 96.6805 305.369 94.644 303.579C91.9732 301.232 89.8411 298.272 87.1836 294.995Z" fill="#7E1B26"/>
<path d="M153.711 238.187C153.514 234.388 155.755 232.333 160.473 232.141C158.92 234.097 156.63 236.05 153.711 238.187Z" fill="#7E1B26"/>
<path d="M143.633 246.094C144.139 245.05 145.231 243.842 146.985 242.609C146.504 243.7 145.361 244.814 143.633 246.094Z" fill="#7E1B26"/>
<path d="M147.973 242.604C148.219 241.918 149.049 241.071 150.478 240.098C150.237 240.795 149.396 241.619 147.973 242.604Z" fill="#7E1B26"/>
<path d="M124.152 262.719C124.328 262.025 125.057 261.131 126.368 260.082C126.201 260.791 125.453 261.655 124.152 262.719Z" fill="#7E1B26"/>
<path d="M138.043 250.645C138.262 249.961 139.047 249.095 140.424 248.09C140.213 248.788 139.411 249.625 138.043 250.645Z" fill="#7E1B26"/>
<path d="M135.82 252.417C135.746 252.011 136.23 251.455 137.241 250.695C137.304 251.084 136.841 251.675 135.82 252.417Z" fill="#7E1B26"/>
<path d="M133.668 254.28C133.59 253.891 134.069 253.321 135.057 252.504C135.12 252.871 134.672 253.486 133.668 254.28Z" fill="#7E1B26"/>
<path d="M118.036 268.563C117.916 268.155 118.334 267.544 119.269 266.699C119.383 267.097 118.978 267.729 118.036 268.563Z" fill="#7E1B26"/>
<path d="M120.035 266.566C119.916 266.158 120.335 265.547 121.273 264.703C121.385 265.101 120.979 265.732 120.035 266.566Z" fill="#7E1B26"/>
<path d="M122.033 264.595C121.934 264.188 122.372 263.593 123.34 262.797C123.438 263.199 123.004 263.803 122.033 264.595Z" fill="#7E1B26"/>
<path d="M129.524 257.951C129.447 257.572 129.903 257.048 130.827 256.285C130.882 256.633 130.469 257.22 129.524 257.951Z" fill="#7E1B26"/>
<path d="M1826.49 993.794C1826.19 993.476 1826.62 993.216 1827.79 992.823C1828.53 992.689 1828.93 993.541 1828.8 993.758C1828.18 993.933 1827.7 993.892 1826.49 993.794Z" fill="#EA4335"/>
<path d="M253.759 163.697C244.473 168.076 235.145 171.126 227.232 176.329C207.558 189.267 188.519 203.172 169.246 216.718C153.222 227.98 137.552 239.787 121.119 250.415C107.352 259.317 92.5352 257.207 81.2676 245.773C68.7637 233.084 60.2657 218.577 57.1445 199.671C58.7848 196.798 59.9968 195.142 61.5538 193.928C88.0861 173.249 114.647 152.607 141.263 132.035C142.792 130.853 144.839 130.339 146.646 129.515C155.132 126.794 163.997 124.883 172.003 121.136C180.988 116.931 189.679 111.719 197.655 105.808C224.797 85.6955 250.823 89.0855 276.404 108.72C282.424 113.34 287.674 119.131 292.583 124.968C295.459 128.388 296.962 132.964 299.015 137.825C286.47 145.748 274.009 152.895 261.502 159.963C259.215 161.256 256.746 162.228 253.759 163.697Z" fill="#CD2839"/>
<path d="M146.98 128.943C144.841 130.342 142.794 130.855 141.264 132.037C114.649 152.609 88.0875 173.252 61.5552 193.931C59.9981 195.144 58.7861 196.801 57.1728 198.848C52.0556 203.608 47.1793 207.771 41.6602 211.235C43.9686 204.324 46.3555 197.755 49.9991 191.979C55.9674 182.517 62.7527 173.57 69.1935 164.406C73.2646 161.104 77.7892 158.225 81.334 154.431C106.665 127.318 136.787 106.859 170.316 91.6101C184.11 85.337 199.056 81.5351 213.616 77.0569C217.489 75.8655 221.872 76.3299 226.483 77.7177C217.94 82.5046 209.096 86.8288 200.917 92.173C182.871 103.965 165.161 116.272 146.98 128.943Z" fill="#E0A294"/>
<path d="M69.2357 163.666C62.7531 173.568 55.9678 182.515 49.9995 191.977C46.3559 197.753 43.9689 204.322 40.981 211.281C40.9444 212.027 40.9613 211.891 40.7697 212.143C40.756 213.021 40.9337 213.649 41.1115 214.277C38.0818 217.521 35.0521 220.766 30.9842 223.801C29.4392 222.992 28.9325 222.393 28.4258 221.793C30.5059 212.363 32.5859 202.933 34.7262 192.746C40.0701 184.464 44.7825 176.445 50.7652 169.524C60.886 157.816 71.8493 146.839 82.3668 135.47C84.7883 132.852 86.839 129.892 89.2944 126.399C91.0225 126.229 92.5166 126.748 95.1534 127.664C89.8917 134.112 84.9459 139.711 80.5396 145.707C76.4839 151.226 73.0085 157.171 69.2357 163.666Z" fill="#C82E3B"/>
<path d="M101.049 122.032C100.429 122.318 99.8104 122.605 99.1914 122.892C99.5365 122.594 99.8815 122.297 100.613 121.996C100.999 121.993 101.049 122.032 101.049 122.032Z" fill="#C82E3B"/>
<path d="M102.949 119.964L103.34 119.395C103.34 119.395 103.355 119.871 103.174 119.934C102.994 119.998 102.949 119.964 102.949 119.964Z" fill="#C82E3B"/>
<path d="M100.98 121.97C101.253 121.371 101.649 120.882 102.551 120.223C102.951 119.967 102.996 120.001 103.013 120.023C102.724 120.607 102.325 121.093 101.441 121.767C101.049 122.034 101 121.995 100.98 121.97Z" fill="#C82E3B"/>
<path d="M27.7809 221.887C28.9306 222.394 29.4373 222.994 30.3431 224.029C31.2857 226.397 31.8293 228.329 32.7377 231.557C33.8539 234.307 34.4099 235.909 35.3876 237.189C43.2034 247.421 51.0991 257.591 58.7434 268.214C58.1887 269.217 57.7906 269.732 56.7237 269.829C51.8648 265.537 47.6042 261.608 43.1709 257.148C42.3529 255.715 41.7078 254.814 40.9684 253.749C40.8741 253.586 40.3641 253.607 40.3641 253.607C40.3641 253.607 40.9085 254.066 41.0014 254.634C41.6544 256.187 42.2145 257.173 42.9224 258.84C44.4467 262.953 45.8233 266.386 47.1365 270.597C46.925 272.408 46.777 273.441 46.6289 274.475C44.7545 275.129 42.8801 275.784 40.2605 276.699C33.135 266.655 29.6207 254.549 24.9644 242.966C23.5226 239.379 21.3257 236.096 18.8338 232.284C18.3127 230.418 18.4322 228.943 18.6825 226.736C21.5882 224.664 24.3631 223.321 27.7809 221.887Z" fill="#82653B"/>
<path d="M87.2331 365.958C85.7925 365.288 83.8008 365.014 82.9935 363.89C69.334 344.863 58.7857 324.3 53.4258 301.168C57.7131 306.554 61.3788 312.314 65.0206 318.044C64.9967 318.014 64.9413 317.96 64.9405 318.435C64.9397 318.909 65.1519 319.833 65.3565 320.507C72.0767 333.925 78.5923 346.668 85.544 360.167C86.3977 362.601 86.8154 364.279 87.2331 365.958Z" fill="#82653B"/>
<path d="M65.0429 318.073C61.3772 312.313 57.7116 306.553 53.5117 300.375C52.9774 299.958 52.9822 300.059 52.9567 299.626C52.9312 299.194 52.7277 298.358 52.7277 298.358C51.8739 296.21 50.5053 294.105 50.325 291.902C50.1739 290.057 51.4101 288.097 53.1387 286.387C55.3529 288.319 56.4604 290.054 57.6321 292.235C57.9599 293.282 58.4125 293.649 59.0916 293.814C59.1291 293.846 59.2062 293.907 59.1619 294.447C59.5661 295.922 60.0146 296.856 60.5851 298.61C62.1523 305.645 63.5976 311.859 65.0429 318.073Z" fill="#BDAE8F"/>
<path d="M57.5707 291.787C56.4632 290.053 55.3557 288.319 53.7867 286.172C51.2598 282.399 49.1943 279.038 46.8799 275.076C46.7789 273.441 46.9269 272.407 47.6692 270.996C52.5342 276.435 56.8903 282.193 61.0348 288.099C62.7465 290.538 63.2628 293.058 59.209 293.906C59.209 293.906 59.1319 293.845 58.9458 293.416C58.4604 292.491 58.0641 292.091 57.5707 291.787Z" fill="#923C24"/>
<path d="M87.1724 365.988C86.8135 364.278 86.3958 362.599 86.2891 360.465C88.4942 362.269 90.3884 364.529 91.8604 367.185C91.1562 367.846 90.8741 368.11 90.5921 368.374C90.5921 368.374 89.8677 368.077 89.2642 367.512C88.1326 366.595 87.6047 366.243 87.0768 365.891C87.0768 365.891 87.1136 366.018 87.1724 365.988Z" fill="#DEB3A6"/>
<path d="M95.0015 369.922C94.6701 370.501 94.2469 371.002 93.3198 371.7C92.2645 371.113 91.621 370.252 90.7852 368.883C90.8749 368.11 91.1569 367.846 92.2089 367.57C93.653 368.346 94.3273 369.134 95.0015 369.922Z" fill="#DEB3A6"/>
<path d="M87.0117 366.318C87.6066 366.244 88.1345 366.596 88.8937 367.391C88.3983 367.471 87.6715 367.108 87.0117 366.318Z" fill="#82653B"/>
<path d="M88.7386 374.207C88.4667 374.009 88.3681 373.647 88.2695 373.285C88.4679 373.309 88.6662 373.334 89.0559 373.531C89.2472 373.704 88.9119 374.043 88.7386 374.207Z" fill="#BDAE8F"/>
<path d="M52.5125 298.557C52.7289 298.359 52.9324 299.195 53.0083 299.619C52.3839 299.82 52.1211 299.391 52.5125 298.557Z" fill="#82653B"/>
<path d="M113.226 347.682C113.399 350.548 113.572 353.415 113.744 356.255C104.597 358.836 100.602 352.101 95.3662 346.327C94.8345 345.979 94.9677 346.085 94.6158 345.643C93.619 344.812 92.9741 344.423 91.8936 343.543C82.4031 328.696 73.3483 314.341 65.1445 300C69.7799 300.563 73.5641 301.112 77.9891 301.882C87.4285 313.97 96.2271 325.837 105.326 338.137C106.128 339.059 106.63 339.548 107.059 340.012C106.985 339.987 107.035 339.841 107.138 340.532C108.098 344.411 109.152 347.426 113.1 347.84C113.105 347.766 113.226 347.682 113.226 347.682Z" fill="#BB9660"/>
<path d="M64.2948 299.988C73.3496 314.343 82.4044 328.699 92.2172 344.042C93.6398 345.383 94.3045 345.735 94.9691 346.088C94.9691 346.088 94.8359 345.981 94.7734 346.038C95.9209 349.432 97.2148 352.744 98.3077 356.12C98.9126 357.989 98.6201 359.411 95.251 357.553C87.6122 346.516 80.833 336.303 73.9519 326.159C71.9553 323.215 69.6668 320.47 66.8491 317.554C65.7714 317.636 65.3567 317.798 64.9421 317.96C64.9421 317.96 64.9975 318.014 65.0214 318.044C63.5999 311.86 62.1547 305.646 61.0977 298.859C62.4222 298.854 63.3585 299.421 64.2948 299.988Z" fill="#82653B"/>
<path d="M67.5105 317.633C69.6652 320.469 71.9538 323.214 73.9503 326.157C80.8315 336.301 87.6106 346.514 94.7287 357.297C95.7693 360.253 96.795 362.572 97.1446 364.988C97.3589 366.47 96.5371 368.102 95.5912 369.794C94.3277 369.134 93.6535 368.346 92.6315 367.173C90.3896 364.528 88.4954 362.269 85.8542 359.709C78.5915 346.667 72.0759 333.923 65.793 320.194C66.5206 318.683 67.0155 318.158 67.5105 317.633Z" fill="#B69563"/>
<path d="M105.026 337.707C96.2277 325.839 87.429 313.972 77.8697 301.474C77.109 300.844 76.9123 300.011 77.1693 299.352C78.9803 297.766 80.5343 296.838 82.0882 295.91C92.5966 310.826 103.105 325.742 114.453 341.809C116.047 344.359 116.803 345.757 117.558 347.156C116.422 347.4 115.285 347.643 113.688 347.786C113.227 347.684 113.106 347.768 113.023 347.197C110.972 344.365 109.004 342.104 107.035 339.843C107.035 339.843 106.986 339.989 106.81 339.541C106.099 338.63 105.562 338.168 105.026 337.707Z" fill="#82653B"/>
<path d="M118.012 346.958C116.801 345.756 116.046 344.357 114.859 342.286C117.695 340.167 118.394 342.692 119.217 345.387C119.072 345.971 118.468 346.761 118.012 346.958Z" fill="#4285F3"/>
<path d="M118.973 346.528C119.649 346.194 120.36 346.487 121.09 347.402C120.408 347.735 119.708 347.445 118.973 346.528Z" fill="#4285F3"/>
<path d="M81.8436 295.286C80.5358 296.835 78.9818 297.763 76.6233 298.981C69.6539 289.577 63.4891 279.883 57.3242 270.19C57.7928 269.73 58.1909 269.215 59.2772 268.543C61.717 269.63 63.3983 270.819 65.0797 272.009C65.0797 272.009 64.9765 272.029 65.2107 272.432C65.9855 273.228 66.5261 273.622 67.0667 274.016C67.0667 274.016 66.9694 274.035 67.2884 274.482C68.2888 275.312 68.9701 275.696 69.6515 276.08C70.0492 276.304 70.3756 276.606 70.8743 277.915C71.7592 279.912 72.4004 280.979 73.0416 282.046C73.0416 282.046 72.945 282.043 73.2153 282.425C74.0101 283.211 74.5345 283.616 75.0589 284.02C75.0589 284.02 74.9673 284.032 75.2064 284.436C75.9841 285.231 76.5226 285.621 77.0612 286.011C77.0612 286.011 76.9745 286.024 77.1813 286.456C77.9456 287.256 78.5031 287.624 79.0606 287.992C79.0606 287.992 78.9888 287.999 78.9771 288.57C79.5809 290.134 80.1964 291.126 80.8119 292.118C81.0737 292.967 81.3356 293.816 81.8436 295.286Z" fill="#923C24"/>
<path d="M81.4307 292.053C80.194 291.128 79.5785 290.136 78.9961 288.543C80.2712 288.874 81.5132 289.806 83.0219 291.273C82.8764 291.868 82.4642 291.927 81.4307 292.053Z" fill="#B4774E"/>
<path d="M1768.78 399.917C1779.71 385.923 1793.26 374.643 1807.18 363.896C1860.02 323.099 1919.44 298.353 1986.08 291.646C2084.26 281.763 2171.65 308.166 2248.43 369.991C2252.06 372.911 2255.59 375.946 2259.88 380.007C2262.12 382.734 2263.64 384.38 2265.17 386.026C2265.17 386.026 2265 385.998 2265.1 386.501C2265.84 387.355 2266.48 387.706 2267.13 388.057C2267.13 388.057 2266.96 388.041 2266.93 388.698C2267.81 391.128 2268.71 392.903 2269.62 394.674C2283.8 422.173 2279.62 453.916 2258.9 476.171C2238.67 497.905 2207.22 504.399 2179.13 492.696C2176.4 491.559 2173.55 490.713 2170.16 489.477C2166.8 487.39 2163.85 485.798 2161.32 483.691C2116.95 446.704 2066.26 429.237 2008.32 433.629C1961.67 437.165 1920.82 454.374 1885.48 484.931C1881.56 488.313 1877.27 491.255 1873.03 493.619C1877.22 481.982 1880.62 470.848 1880.25 459.066C1878.64 407.477 1825.62 374.906 1778.81 396.558C1775.63 398.03 1772.13 398.813 1768.78 399.917Z" fill="#4284F3"/>
<path d="M1768.86 399.951C1772.13 398.813 1775.63 398.03 1778.81 396.558C1825.62 374.906 1878.64 407.477 1880.25 459.066C1880.61 470.847 1877.22 481.981 1872.97 493.494C1873.03 494.151 1873.27 494.017 1872.68 494.252C1871.69 495.688 1871.3 496.891 1870.91 498.002C1870.9 497.911 1871.08 497.89 1870.79 498.274C1870.04 499.131 1869.53 499.524 1868.75 500.485C1865.29 504.891 1861.86 508.507 1858.83 512.427C1823.66 557.816 1808.55 609.001 1814.67 666.24C1819.25 709.092 1835.75 746.855 1863.37 779.86C1866.71 783.856 1869.67 788.175 1872.07 792.758C1867.85 792.096 1864.4 790.878 1860.88 789.963C1814.21 777.844 1770.53 813.376 1771.38 860.736C1771.67 876.486 1777.8 890.353 1786.48 903.218C1781.12 898.803 1775.25 894.879 1770.49 889.897C1723.16 840.367 1691.38 782.359 1677.78 715.078C1662.73 640.545 1670.49 568.231 1701.47 498.569C1717.31 462.965 1739.1 431.346 1766.28 402.084C1768.02 401.088 1768.52 400.452 1769.01 399.815C1769.01 399.815 1768.94 399.986 1768.86 399.951Z" fill="#0F9C58"/>
<path d="M2170.76 489.733C2173.56 490.714 2176.41 491.56 2179.13 492.696C2207.22 504.4 2238.67 497.905 2258.9 476.172C2279.63 453.916 2283.8 422.174 2269.62 394.674C2268.71 392.904 2267.81 391.128 2266.93 388.613C2269.55 389.649 2272.46 391.09 2274.67 393.253C2318.64 436.423 2348.37 488.032 2365.1 547.182C2372.08 571.858 2375.88 597.033 2377.53 622.714C2380.92 675.408 2372.16 725.916 2352.91 774.831C2339.65 808.546 2321.22 839.216 2298.31 867.238C2293.9 872.636 2289.51 878.053 2283.94 883.97C2282.17 885.047 2281.57 885.615 2280.98 886.183C2280.98 886.183 2281.01 886.003 2280.52 886.12C2279.71 886.888 2279.38 887.539 2279.05 888.189C2279.05 888.189 2279.04 888.052 2278.35 887.846C2274.56 888.771 2271.42 889.799 2268.37 891.05C2254.12 896.909 2239.31 898.231 2224.43 894.884C2184.01 885.788 2160.58 845.056 2172.4 805.265C2173.52 801.518 2174.1 797.613 2174.96 793.869C2174.99 793.956 2174.82 794.029 2175.4 793.694C2176.35 792.545 2176.72 791.732 2177.35 790.359C2178.62 788.479 2179.53 787.081 2180.63 785.848C2219.51 742.105 2238.21 691.297 2235.45 632.525C2233.66 594.329 2222.57 559.27 2201.35 527.714C2192.31 514.275 2181.03 502.347 2170.76 489.733Z" fill="#DA4437"/>
<path d="M2174.92 793.78C2174.09 797.611 2173.51 801.516 2172.4 805.263C2160.58 845.054 2184 885.786 2224.43 894.882C2239.31 898.229 2254.11 896.907 2268.37 891.048C2271.41 889.797 2274.55 888.769 2278.4 887.877C2268.22 902.091 2254.65 913.26 2240.73 924.033C2192.63 961.265 2138.22 984.038 2078.3 993.293C2059.68 996.17 2040.59 997.839 2021.77 997.39C1935.27 995.326 1858.55 966.895 1792.99 909.764C1790.74 907.805 1788.77 905.526 1786.57 903.307C1777.79 890.352 1771.67 876.484 1771.38 860.735C1770.53 813.375 1814.21 777.843 1860.88 789.961C1864.4 790.877 1867.85 792.094 1872.13 792.686C1872.92 792.2 1872.78 792.083 1872.65 792.794C1873.33 794.024 1874.14 794.542 1875.45 795.455C1881.9 799.988 1888.05 803.86 1893.76 808.311C1934.1 839.807 1979.57 855.771 2031.82 853.998C2044.62 857.164 2056.53 856.364 2067.82 851.874C2077.86 847.881 2087.82 844.885 2098.7 845.94C2104.62 846.513 2107.42 843.809 2107.75 837.704C2125.41 830.081 2141.25 820.704 2155.87 809.294C2162.32 804.254 2168.58 798.959 2174.92 793.78Z" fill="#F3B300"/>
<path d="M2265.27 385.295C2263.64 384.378 2262.12 382.732 2260.27 380.477C2261.76 381.434 2263.56 383 2265.27 385.295Z" fill="#DA4437"/>
<path d="M2281.62 886.073C2281.57 885.613 2282.17 885.045 2283.36 884.234C2283.4 884.649 2282.83 885.307 2281.62 886.073Z" fill="#F3B300"/>
<path d="M2279.63 888.105C2279.38 887.539 2279.7 886.888 2280.61 886.137C2280.86 886.698 2280.53 887.36 2279.63 888.105Z" fill="#F3B300"/>
<path d="M2267.24 387.379C2266.48 387.705 2265.84 387.354 2265.11 386.415C2265.8 386.119 2266.57 386.411 2267.24 387.379Z" fill="#DA4437"/>
<path d="M1768.39 399.914C1768.52 400.449 1768.02 401.086 1766.88 401.833C1766.74 401.301 1767.26 400.658 1768.39 399.914Z" fill="#4284F3"/>
<path d="M65.2157 271.281C63.398 270.823 61.7166 269.633 59.5037 268.113C51.1009 257.593 43.2053 247.422 35.3894 237.191C34.4117 235.911 33.8557 234.309 33.0234 232.109C43.5322 237.091 49.3849 247.427 56.734 256.232C60.2617 260.458 62.5193 265.744 65.2157 271.281Z" fill="#B4774E"/>
<path d="M73.0272 281.407C72.4002 280.982 71.759 279.915 71.0312 278.215C71.6341 278.642 72.3235 279.703 73.0272 281.407Z" fill="#B4774E"/>
<path d="M41.2316 213.684C40.9321 213.651 40.7544 213.023 40.8364 212.148C41.1819 212.297 41.2676 212.693 41.2316 213.684Z" fill="#E0A294"/>
<path d="M78.8964 287.492C78.5005 287.626 77.943 287.258 77.1875 286.415C77.5713 286.29 78.153 286.64 78.8964 287.492Z" fill="#B4774E"/>
<path d="M76.9067 285.499C76.5201 285.622 75.9815 285.232 75.2109 284.392C75.5708 284.29 76.1628 284.638 76.9067 285.499Z" fill="#B4774E"/>
<path d="M74.9168 283.499C74.5324 283.619 74.008 283.214 73.2227 282.381C73.5668 282.293 74.1718 282.634 74.9168 283.499Z" fill="#B4774E"/>
<path d="M69.3191 275.582C68.9671 275.697 68.2857 275.314 67.2891 274.434C67.6458 274.319 68.3178 274.701 69.3191 275.582Z" fill="#B4774E"/>
<path d="M66.9539 273.47C66.5244 273.622 65.9839 273.228 65.2148 272.38C65.6052 272.258 66.224 272.591 66.9539 273.47Z" fill="#B4774E"/>
<path d="M56.7236 269.829C63.4868 279.886 69.6517 289.579 76.364 299.642C76.9116 300.01 77.1083 300.844 77.2283 301.253C73.564 301.114 69.7797 300.565 65.1444 300.002C63.357 299.42 62.4207 298.854 60.9741 298.038C60.0154 296.856 59.5669 295.922 59.1628 294.448C63.2609 293.059 62.7445 290.539 61.0329 288.1C56.8883 282.194 52.5322 276.436 47.7306 270.219C45.8233 266.386 44.4467 262.954 43.0664 258.722C43.0628 257.923 43.3437 257.68 43.3437 257.68C47.6042 261.608 51.8647 265.537 56.7236 269.829Z" fill="#B4774E"/>
<path d="M42.9188 258.039C42.2145 257.171 41.6544 256.185 41.0423 254.596C40.9902 253.992 41.0626 253.91 41.0626 253.91C41.7077 254.812 42.3529 255.713 43.1709 257.146C43.3437 257.677 43.0629 257.921 42.9188 258.039Z" fill="#B4774E"/>
<path d="M40.9486 254.029C40.9077 254.065 40.3633 253.606 40.3633 253.606C40.3633 253.606 40.8733 253.585 40.9676 253.748C41.0618 253.911 40.9894 253.993 40.9486 254.029Z" fill="#B4774E"/>
<path d="M38.0056 249.067C38.0657 249.038 37.9455 249.096 38.0056 249.067Z" fill="#B4774E"/>
<path d="M66.8492 317.555C67.0172 318.16 66.5223 318.685 65.5901 319.522C65.1529 319.833 64.9406 318.909 64.9414 318.435C65.3569 317.799 65.7716 317.637 66.8492 317.555Z" fill="#BDAE8F"/>
<path d="M57.6328 292.235C58.062 292.092 58.4583 292.492 58.9061 293.385C58.4131 293.649 57.9606 293.282 57.6328 292.235Z" fill="#B4774E"/>
<path d="M107.137 340.535C109.002 342.104 110.97 344.365 113.016 347.271C109.151 347.429 108.097 344.414 107.137 340.535Z" fill="#BDAE8F"/>
<path d="M105.328 338.137C105.564 338.165 106.1 338.627 106.885 339.563C106.632 339.547 106.13 339.059 105.328 338.137Z" fill="#BDAE8F"/>
<path d="M94.6166 345.645C94.3039 345.735 93.6393 345.382 92.6523 344.533C92.9749 344.426 93.6198 344.814 94.6166 345.645Z" fill="#BDAE8F"/>
<path d="M1872.68 494.25C1872.88 495.143 1872.47 496.271 1871.5 497.745C1871.31 496.889 1871.69 495.687 1872.68 494.25Z" fill="#4284F3"/>
<path d="M1870.79 498.273C1870.79 498.495 1870.39 499.005 1869.41 499.629C1869.53 499.524 1870.04 499.131 1870.79 498.273Z" fill="#4284F3"/>
<path d="M2175.4 793.694C2175.21 793.255 2175.6 792.481 2176.53 791.312C2176.72 791.732 2176.35 792.546 2175.4 793.694Z" fill="#F3B300"/>
<path d="M1901.34 627.018C1904.21 630.704 1909.48 633.849 1903.72 639.371C1903.16 639.91 1903.95 642.426 1904.7 643.67C1912.45 656.568 1923.57 665.887 1936.78 672.714C1938.89 673.804 1942.01 673.638 1944.49 673.163C1949.29 672.245 1953.96 670.669 1958.69 669.41C1965.72 667.538 1968.24 668.753 1970.47 675.498C1971.28 677.965 1971.44 680.649 1971.95 683.58C1980.46 687.926 1989.49 684.919 1997.87 685.698C2003.12 679.551 2006.9 673.62 2004.94 665.435C2004.48 663.543 2005.75 660.825 2006.99 659.016C2011.21 652.868 2010.82 647.251 2007.82 640.387C2002.76 628.831 2004.14 616.629 2006.38 603.089C2012.11 607.124 2016.5 610.036 2020.71 613.192C2045.57 631.849 2073.06 644.55 2103.71 650.233C2111.8 651.734 2113.48 655.907 2108.68 662.562C2103.76 669.374 2096.18 670.952 2088.56 672.23C2085.96 672.667 2083.25 672.525 2080.67 673.065C2077.05 673.825 2074.84 676.109 2074.72 680.011C2074.67 682.009 2074.52 684.024 2074.7 686.005C2075.4 693.517 2072.98 698.988 2063.34 700.922C2067.87 707.236 2071.19 712.965 2075.57 717.723C2084.13 727.028 2089.72 737.895 2092.72 749.874C2098.61 773.37 2103.45 797.102 2105.36 821.329C2105.75 826.279 2106.33 831.213 2106.94 837.01C2107.42 843.811 2104.62 846.515 2098.7 845.942C2087.81 844.887 2077.86 847.883 2067.82 851.876C2056.53 856.366 2044.62 857.166 2031.82 854C2029.44 851.06 2027.45 848.29 2026.44 845.202C2019.77 824.771 2010.35 805.086 2009.2 783.111C2009.15 782.184 2008.57 781.285 2008.08 779.962C1991.34 786.574 1973.89 788.277 1956.21 788.305C1953.24 788.309 1950.17 788.16 1947.3 787.466C1942.49 786.305 1938.9 783.828 1938.44 778.136C1937.56 767.245 1935.71 756.393 1935.46 745.498C1934.98 724.217 1935.32 702.917 1935.32 682.999C1925.16 675.401 1916.11 669.236 1907.78 662.21C1900.98 656.473 1894.41 650.217 1888.85 643.305C1868.87 618.517 1868.02 590.461 1878.47 562.151C1893.17 522.324 1924.23 500.228 1964.1 490.103C1980.42 485.959 1997.5 484.911 2014.19 482.172C2023.66 480.618 2033.1 479.013 2041.43 473.39C2047.08 469.57 2053.08 472.171 2056.51 479.717C2060.74 489.012 2061.93 498.957 2060.06 508.968C2059.11 514.091 2057.52 519.374 2054.95 523.853C2050.67 531.288 2044.96 531.983 2038.38 526.613C2035.83 524.525 2033.47 522.07 2031.49 519.429C2026.21 512.397 2018.96 509.836 2010.6 509.718C2003.93 509.624 1997.27 509.811 1988.92 509.774C1985.88 511.06 1984.2 512.257 1983.26 513.881C1982.21 515.693 1981.84 517.893 1980.93 519.178C1980.11 516.32 1979.51 514.208 1978.77 511.582C1955.4 516.583 1934.6 525.497 1917.2 541.138C1895.45 560.691 1888.44 585.483 1892.65 613.959C1893.05 616.639 1893.91 618.35 1896.87 618.774C1896.87 619.248 1897.12 620.162 1897.12 620.162C1897.16 621.094 1897.2 622.026 1896.55 623.967C1896.35 627.107 1896.84 629.238 1897.62 632.693C1899.6 629.676 1900.47 628.347 1901.34 627.018ZM1961.43 719.724C1963.78 726.264 1965.74 732.979 1968.57 739.298C1971.92 746.761 1973.94 747.324 1981.85 745.241C1988.24 743.559 1994.58 741.228 2001.08 740.582C2006.7 740.022 2010.48 737.477 2013.44 733.372C2017.48 727.783 2021.08 721.884 2024.73 716.332C2022.7 711.182 2018.63 710.403 2014.24 709.406C2004.92 707.291 2003.93 705.627 2003.65 695.704C2003.61 694.51 2003.09 693.329 2002.67 691.663C1994.3 691.663 1986.33 691.476 1978.38 691.749C1974.9 691.869 1970.15 691.743 1968.27 693.813C1964.64 697.833 1962.02 703.11 1960.19 708.292C1959.2 711.079 1960.71 714.75 1961.43 719.724Z" fill="#F2BD29"/>
<path d="M1872.66 792.794C1873.48 792.609 1874.18 793.135 1874.91 794.361C1874.14 794.542 1873.33 794.024 1872.66 792.794Z" fill="#0F9C58"/>
<path d="M1979.4 543.868C1979.86 536.444 1980.31 529.021 1980.97 520.76C1981.84 517.892 1982.21 515.692 1983.26 513.88C1984.2 512.256 1985.88 511.06 1987.97 509.762C1986.24 513.315 1989.61 514.234 1991.35 515.781C1994.51 518.585 1997.2 521.147 1993.4 525.691C1992.53 526.726 1994.39 529.749 1994.33 531.839C1994.28 533.818 1993.35 535.773 1992.81 537.739C1991.01 536.237 1988.97 534.926 1987.52 533.139C1986.94 532.415 1988 530.547 1987.66 529.386C1987 527.097 1985.89 524.939 1983.43 523.108C1982.56 529.499 1981.7 535.889 1980.35 543.012C1979.88 543.744 1979.4 543.868 1979.4 543.868Z" fill="#C49921"/>
<path d="M1896.87 618.772C1908.44 614.117 1920.01 609.937 1932.34 605.84C1932.23 607.135 1931.61 609.039 1930.46 609.45C1919.94 613.215 1909.33 616.721 1897.93 620.231C1897.12 620.16 1896.87 619.245 1896.87 618.772Z" fill="#9D7B1A"/>
<path d="M1967.64 574.163C1970.58 566.047 1974.23 558.007 1978.36 549.988C1975.34 558.086 1971.85 566.161 1967.64 574.163Z" fill="#9D7B1A"/>
<path d="M1949.43 594.652C1951.85 591.18 1954.8 588.327 1958.43 585.707C1956.06 589.05 1953 592.16 1949.43 594.652Z" fill="#9D7B1A"/>
<path d="M1901.27 626.569C1900.48 628.347 1899.6 629.676 1897.62 632.693C1896.84 629.237 1896.36 627.107 1896.44 624.668C1898.41 624.946 1899.8 625.533 1901.27 626.569Z" fill="#923C24"/>
<path d="M1961.63 582.413C1962.54 579.437 1964.14 576.815 1966.4 574.051C1965.48 576.861 1963.9 579.814 1961.63 582.413Z" fill="#9D7B1A"/>
<path d="M1939.55 602.353C1941.31 600.268 1943.73 598.478 1946.63 597.344C1944.82 599.548 1942.52 601.098 1939.55 602.353Z" fill="#9D7B1A"/>
<path d="M1933.64 606.276C1934.52 604.696 1936.13 603.324 1938.41 601.93C1939.52 605.49 1936.84 605.871 1933.64 606.276Z" fill="#9D7B1A"/>
<path d="M1959.67 585.844C1959.2 584.861 1959.45 583.601 1960.36 582.137C1960.82 583.144 1960.6 584.355 1959.67 585.844Z" fill="#9D7B1A"/>
<path d="M1947.73 597.806C1947.18 596.911 1947.36 595.71 1948.29 594.203C1948.84 595.099 1948.65 596.3 1947.73 597.806Z" fill="#9D7B1A"/>
<path d="M1979.43 544.254C1979.4 543.869 1979.88 543.744 1980.12 543.796C1980.36 543.849 1980.54 544.646 1980.63 545.042C1980.18 545.374 1979.76 545.107 1979.43 544.254Z" fill="#9D7B1A"/>
<path d="M1961.26 718.87C1960.71 714.747 1959.2 711.076 1960.19 708.289C1962.02 703.107 1964.64 697.829 1968.27 693.809C1970.15 691.74 1974.9 691.866 1978.38 691.746C1986.33 691.473 1994.3 691.66 2002.67 691.66C2003.09 693.326 2003.61 694.507 2003.65 695.701C2003.93 705.624 2004.92 707.288 2014.24 709.403C2018.63 710.4 2022.7 711.179 2024.73 716.329C2021.08 721.881 2017.48 727.78 2013.44 733.368C2010.48 737.473 2006.7 740.019 2001.08 740.579C1994.58 741.225 1988.24 743.556 1981.85 745.238C1973.94 747.321 1971.92 746.758 1968.57 739.295C1965.74 732.975 1963.78 726.261 1961.26 718.87Z" fill="#040301"/>
</svg>
