<svg width="314" height="314" viewBox="0 0 314 314" fill="none" xmlns="http://www.w3.org/2000/svg">
<path fill-rule="evenodd" clip-rule="evenodd" d="M6.8985 144.925C-2.2995 150.235 -2.2995 163.511 6.8985 168.821L72.8825 206.917C64.1335 192.285 59.1055 175.172 59.1055 156.884C59.1055 138.582 64.1415 121.456 72.9035 106.817L6.8985 144.925ZM155.273 59.2595C155.761 59.2525 156.25 59.2495 156.74 59.2495C193.526 59.2495 225.561 79.5925 242.207 109.644V32.9651C242.207 22.3447 230.71 15.7069 221.512 21.0171L155.273 59.2595ZM242.207 204.125C225.561 234.175 193.526 254.519 156.74 254.519C156.264 254.519 155.789 254.516 155.314 254.509L221.512 292.728C230.71 298.038 242.207 291.401 242.207 280.78V204.125Z" fill="#34A853" fill-opacity="0.9"/>
<path d="M241.707 107.747C224.794 78.5651 193.278 58.8999 157.155 58.7504L221.761 21.4501C230.626 16.3324 241.707 22.7296 241.707 32.9651V107.747ZM7.1485 168.387L6.8985 168.821L7.14848 168.387C-1.71616 163.27 -1.71616 150.475 7.14848 145.358L71.5176 108.194C63.3017 122.543 58.6055 139.165 58.6055 156.884C58.6055 174.588 63.2943 191.198 71.498 205.54L7.1485 168.387ZM221.762 292.295L157.196 255.017C193.302 254.853 224.8 235.191 241.707 206.021V280.78C241.707 291.016 230.626 297.412 221.762 292.295Z" stroke="#34A853" stroke-opacity="0.9"/>
<path fill-rule="evenodd" clip-rule="evenodd" d="M254.36 158.685C254.371 158.086 254.376 157.485 254.376 156.883C254.376 120.185 234.129 88.2164 204.197 71.5374H280.779C291.399 71.5374 298.037 83.0344 292.727 92.2324L254.36 158.685ZM207.096 240.548C192.394 249.416 175.163 254.518 156.741 254.518C138.486 254.518 121.4 249.508 106.785 240.787L144.924 306.845C150.234 316.043 163.509 316.043 168.82 306.845L207.096 240.548ZM59.1148 158.221L21.0158 92.2324C15.7058 83.0344 22.3438 71.5374 32.9638 71.5374H109.286C79.3528 88.2164 59.1058 120.185 59.1058 156.883C59.1058 157.33 59.1088 157.776 59.1148 158.221Z" fill="#FBBC04" fill-opacity="0.9"/>
<path d="M254.876 156.792C254.843 120.619 235.238 89.0289 206.084 72.0374H280.779C291.014 72.0374 297.411 83.1177 292.294 91.9824L254.876 156.792ZM156.741 255.018C174.575 255.018 191.3 250.261 205.712 241.945L168.387 306.595C163.268 315.46 150.474 315.46 145.357 306.595L108.16 242.169C122.484 250.346 139.068 255.018 156.741 255.018ZM32.9638 72.0374H107.399C78.3639 88.9585 58.8015 120.358 58.6072 156.342L21.4488 91.9824C21.4488 91.9824 21.4488 91.9824 21.4488 91.9824C16.3312 83.1177 22.7287 72.0374 32.9638 72.0374Z" stroke="#FBBC04" stroke-opacity="0.9"/>
<path fill-rule="evenodd" clip-rule="evenodd" d="M306.848 168.82C316.045 163.51 316.045 150.234 306.848 144.924L240.44 106.583C249.288 121.274 254.377 138.485 254.377 156.884C254.377 175.268 249.296 192.465 240.462 207.148L306.848 168.82ZM158.438 254.504C157.874 254.514 157.309 254.519 156.742 254.519C120.149 254.519 88.2576 234.388 71.5396 204.596V280.779C71.5396 291.4 83.0366 298.037 92.2336 292.727L158.438 254.504ZM158.481 59.2644L92.2336 21.0171C83.0366 15.7069 71.5396 22.3446 71.5396 32.9651V109.172C88.2576 79.3804 120.149 59.2494 156.742 59.2494C157.323 59.2494 157.903 59.2544 158.481 59.2644Z" fill="#EA4335" fill-opacity="0.9"/>
<path d="M91.9835 21.4501L91.9836 21.4502L156.589 58.7496C120.543 58.8045 89.055 78.2929 72.0396 107.297V32.9651C72.0396 22.7295 83.1199 16.3324 91.9835 21.4501ZM306.598 145.357C315.461 150.475 315.461 163.27 306.598 168.387L241.855 205.767C250.138 191.374 254.877 174.682 254.877 156.884C254.877 139.073 250.131 122.367 241.834 107.966L306.598 145.357ZM72.0396 206.472C89.0483 235.464 120.518 254.949 156.546 255.019L91.9836 292.294C83.1199 297.412 72.0396 291.016 72.0396 280.779V206.472Z" stroke="#EA4335" stroke-opacity="0.9"/>
<path d="M145.356 7.14813C150.474 -1.71604 163.269 -1.71604 168.386 7.14812L205.733 71.8345C191.316 63.5116 174.583 58.7493 156.74 58.7493C139.059 58.7493 122.468 63.426 108.139 71.6101L145.356 7.14813ZM206.124 241.706C235.263 224.705 254.851 193.118 254.875 156.953L292.293 221.761C297.411 230.626 291.014 241.706 280.778 241.706H206.124ZM21.4493 221.761L58.6076 157.402C58.7933 193.379 78.3391 224.775 107.357 241.706H32.9643C22.7282 241.706 16.3308 230.626 21.4493 221.761Z" fill="#4285F4" fill-opacity="0.9" stroke="#4285F4"/>
<path d="M115.758 98.7471L115.758 98.7471C110.06 93.9133 102.193 93.3057 95.9743 96.6125C127.009 65.1794 177.447 62.4169 211.802 91.2351L212.172 91.5496C219.211 97.5219 220.075 108.069 214.104 115.109C208.131 122.148 197.583 123.013 190.543 117.041L190.541 117.039C190.488 116.994 190.434 116.948 190.377 116.9L190.374 116.897C169.732 99.5342 139.529 100.914 120.544 119.331C123.586 112.352 121.863 103.926 115.758 98.7471Z" fill="url(#paint0_linear_316_27)" stroke="#4A86CF"/>
<path fill-rule="evenodd" clip-rule="evenodd" d="M91.1657 101.118C60.4807 137.287 64.8457 191.441 100.87 222.233L101.117 222.443H101.118C93.8677 216.292 92.9757 205.428 99.1267 198.178C105.278 190.927 116.142 190.036 123.392 196.187C101.67 177.757 98.9767 145.225 117.354 123.475C117.377 123.447 117.4 123.42 117.423 123.393C123.574 116.143 122.683 105.279 115.433 99.1284C108.183 92.9774 97.3187 93.8684 91.1677 101.118V101.119L91.1657 101.118Z" fill="url(#paint1_linear_316_27)"/>
<path d="M91.6677 101.303V101.934L91.2923 101.743C62.4091 136.102 65.1556 186.59 96.615 217.646C93.304 211.426 93.9093 203.555 98.7454 197.855C103.923 191.751 112.346 190.027 119.324 193.066C100.887 174.053 99.5317 143.796 116.97 123.155C116.994 123.125 117.019 123.096 117.04 123.071L117.041 123.07L91.6677 101.303ZM91.6677 101.303C97.6602 94.3913 108.116 93.5767 115.109 99.5096C122.148 105.482 123.014 116.03 117.042 123.069L91.6677 101.303Z" stroke="#0F9D58" stroke-opacity="0.95"/>
<path fill-rule="evenodd" clip-rule="evenodd" d="M101.122 222.443C137.288 253.125 191.436 248.764 222.229 212.748L222.447 212.492C216.296 219.742 205.432 220.633 198.182 214.482C190.932 208.331 190.041 197.467 196.192 190.217C177.765 211.938 145.236 214.634 123.485 196.263C123.456 196.238 123.427 196.213 123.398 196.188C116.147 190.037 105.283 190.928 99.1323 198.179C92.9823 205.429 93.8724 216.292 101.122 222.443Z" fill="url(#paint2_linear_316_27)"/>
<path d="M123.163 196.645C143.805 214.079 174.06 212.722 193.071 194.286C190.032 201.264 191.756 209.686 197.859 214.864C203.558 219.699 211.428 220.305 217.648 216.996C186.501 248.546 135.809 251.215 101.446 222.062C94.4064 216.09 93.5422 205.542 99.5136 198.503C105.486 191.463 116.033 190.597 123.073 196.568C123.074 196.569 123.074 196.569 123.075 196.57L123.115 196.605L123.159 196.642L123.159 196.642L123.163 196.645Z" stroke="#F4B400" stroke-opacity="0.95"/>
<path fill-rule="evenodd" clip-rule="evenodd" d="M212.7 91.3385L212.56 91.2205C219.752 97.3805 220.621 108.202 214.487 115.432C208.354 122.661 197.535 123.568 190.285 117.475C211.977 135.937 214.628 168.487 196.192 190.216C190.041 197.467 190.932 208.331 198.182 214.482C205.433 220.633 216.297 219.742 222.448 212.491L222.526 212.4C253.138 176.216 248.734 122.098 212.7 91.3385Z" fill="url(#paint3_linear_316_27)"/>
<path d="M194.291 120.544C201.269 123.583 209.691 121.858 214.868 115.756C219.704 110.055 220.31 102.184 217 95.9644C248.522 127.084 251.215 177.714 222.145 212.076C222.145 212.077 222.144 212.077 222.144 212.078L222.068 212.166L222.066 212.168C216.094 219.208 205.546 220.074 198.505 214.101C191.466 208.129 190.601 197.58 196.573 190.54C214.087 169.897 212.753 139.583 194.291 120.544Z" stroke="#EA4335" stroke-opacity="0.9"/>
<defs>
<linearGradient id="paint0_linear_316_27" x1="170.279" y1="91.6984" x2="105.652" y2="110.129" gradientUnits="userSpaceOnUse">
<stop stop-color="#4285F4"/>
<stop offset="1" stop-color="#4285F4" stop-opacity="0.7"/>
</linearGradient>
<linearGradient id="paint1_linear_316_27" x1="91.6977" y1="143.335" x2="110.13" y2="207.962" gradientUnits="userSpaceOnUse">
<stop stop-color="#0F9D58"/>
<stop offset="1" stop-color="#0F9D58" stop-opacity="0.7"/>
</linearGradient>
<linearGradient id="paint2_linear_316_27" x1="143.34" y1="221.912" x2="207.967" y2="203.481" gradientUnits="userSpaceOnUse">
<stop stop-color="#F4B400"/>
<stop offset="1" stop-color="#F4B400" stop-opacity="0.7"/>
</linearGradient>
<linearGradient id="paint3_linear_316_27" x1="221.937" y1="170.291" x2="203.489" y2="105.714" gradientUnits="userSpaceOnUse">
<stop stop-color="#DB4437"/>
<stop offset="1" stop-color="#DB4437" stop-opacity="0.7"/>
</linearGradient>
</defs>
</svg>
